G04 #@! TF.FileFunction,Copper,L1,Top,Signal*
%FSLAX46Y46*%
G04 Gerber Fmt 4.6, Leading zero omitted, Abs format (unit mm)*
G04 Created by KiCad (PCBNEW 4.0.4-stable) date Thursday 06 October 2016 23:28:34*
%MOMM*%
%LPD*%
G01*
G04 APERTURE LIST*
%ADD10C,0.100000*%
%ADD11C,2.500000*%
%ADD12C,3.000000*%
%ADD13R,2.540000X2.540000*%
%ADD14C,2.540000*%
%ADD15C,1.524000*%
%ADD16R,1.727200X1.727200*%
%ADD17O,1.727200X1.727200*%
%ADD18R,1.800860X0.800100*%
%ADD19R,1.500000X1.300000*%
%ADD20R,1.300000X1.500000*%
%ADD21O,1.600000X1.600000*%
%ADD22R,0.800000X0.900000*%
%ADD23C,0.889000*%
%ADD24C,0.600000*%
%ADD25C,0.200000*%
%ADD26C,0.500000*%
%ADD27C,0.300000*%
%ADD28C,0.050000*%
G04 APERTURE END LIST*
D10*
D11*
X113610000Y-99840000D03*
D12*
X113610000Y-112040000D03*
X125660000Y-112090000D03*
D11*
X125610000Y-99840000D03*
D12*
X119660000Y-97890000D03*
D13*
X134900000Y-124560000D03*
D14*
X139980000Y-124560000D03*
X145060000Y-124560000D03*
D15*
X138710000Y-94080000D03*
X141250000Y-94080000D03*
X136170000Y-94080000D03*
D16*
X113310000Y-76300000D03*
D17*
X113310000Y-73760000D03*
X115850000Y-76300000D03*
X115850000Y-73760000D03*
X118390000Y-76300000D03*
X118390000Y-73760000D03*
X120930000Y-76300000D03*
X120930000Y-73760000D03*
X123470000Y-76300000D03*
X123470000Y-73760000D03*
X126010000Y-76300000D03*
X126010000Y-73760000D03*
X128550000Y-76300000D03*
X128550000Y-73760000D03*
X131090000Y-76300000D03*
X131090000Y-73760000D03*
X133630000Y-76300000D03*
X133630000Y-73760000D03*
X136170000Y-76300000D03*
X136170000Y-73760000D03*
X138710000Y-76300000D03*
X138710000Y-73760000D03*
X141250000Y-76300000D03*
X141250000Y-73760000D03*
X143790000Y-76300000D03*
X143790000Y-73760000D03*
X146330000Y-76300000D03*
X146330000Y-73760000D03*
X148870000Y-76300000D03*
X148870000Y-73760000D03*
X151410000Y-76300000D03*
X151410000Y-73760000D03*
X153950000Y-76300000D03*
X153950000Y-73760000D03*
X156490000Y-76300000D03*
X156490000Y-73760000D03*
X159030000Y-76300000D03*
X159030000Y-73760000D03*
X161570000Y-76300000D03*
X161570000Y-73760000D03*
D13*
X124740000Y-124560000D03*
D14*
X129820000Y-124560000D03*
D13*
X114580000Y-124560000D03*
D14*
X119660000Y-124560000D03*
D18*
X126241140Y-95030000D03*
X126241140Y-93130000D03*
X123238860Y-94080000D03*
D19*
X139620000Y-111760000D03*
X142320000Y-111760000D03*
D20*
X133630000Y-114320000D03*
X133630000Y-117020000D03*
X146330000Y-114320000D03*
X146330000Y-117020000D03*
X132080000Y-91360000D03*
X132080000Y-94060000D03*
D15*
X139980000Y-115670000D03*
X137440000Y-115670000D03*
X142520000Y-115670000D03*
D21*
X132360000Y-109320000D03*
X134900000Y-109320000D03*
X134900000Y-101700000D03*
X132360000Y-101700000D03*
D22*
X118610000Y-94080000D03*
X120710000Y-94080000D03*
D23*
X142328900Y-110058200D03*
X129809240Y-89352120D03*
D24*
X145060000Y-124560000D02*
X145060000Y-118290000D01*
X145060000Y-118290000D02*
X146330000Y-117020000D01*
X142520000Y-115670000D02*
X144980000Y-115670000D01*
X144980000Y-115670000D02*
X146330000Y-117020000D01*
D25*
X115850000Y-73760000D02*
X115850000Y-74244800D01*
X115850000Y-74244800D02*
X117180360Y-75575160D01*
X117180360Y-75438000D02*
X117180360Y-75575160D01*
X117180360Y-75575160D02*
X117180360Y-78486000D01*
D26*
X118610000Y-94080000D02*
X118610000Y-93883100D01*
X118610000Y-93883100D02*
X117221000Y-92494100D01*
X113310000Y-73760000D02*
X115850000Y-73760000D01*
D25*
X115850000Y-73760000D02*
X115850000Y-74107640D01*
X117180360Y-92650360D02*
X118610000Y-94080000D01*
X117180360Y-78486000D02*
X117180360Y-92650360D01*
D26*
X113610000Y-99080000D02*
X118610000Y-94080000D01*
X113610000Y-99840000D02*
X113610000Y-99080000D01*
X134900000Y-124560000D02*
X134900000Y-121640000D01*
X137440000Y-119100000D02*
X137440000Y-115670000D01*
X134900000Y-121640000D02*
X137440000Y-119100000D01*
X137440000Y-115670000D02*
X137440000Y-113940000D01*
X137440000Y-113940000D02*
X139620000Y-111760000D01*
X132360000Y-101700000D02*
X132360000Y-101880000D01*
X132360000Y-101880000D02*
X139620000Y-109140000D01*
X139620000Y-109140000D02*
X139620000Y-111760000D01*
D24*
X113610000Y-99840000D02*
X115080000Y-99840000D01*
X131190000Y-102870000D02*
X132360000Y-101700000D01*
X118110000Y-102870000D02*
X131190000Y-102870000D01*
X115080000Y-99840000D02*
X118110000Y-102870000D01*
X125610000Y-99840000D02*
X125610000Y-98760000D01*
X125610000Y-98760000D02*
X123238860Y-96388860D01*
X123238860Y-96388860D02*
X123238860Y-94080000D01*
X120710000Y-94080000D02*
X123238860Y-94080000D01*
X126241140Y-95030000D02*
X131110000Y-95030000D01*
X131110000Y-95030000D02*
X132080000Y-94060000D01*
X124740000Y-124560000D02*
X124740000Y-123290000D01*
X124740000Y-123290000D02*
X131090000Y-116940000D01*
X131090000Y-116940000D02*
X131090000Y-110590000D01*
X131090000Y-110590000D02*
X132360000Y-109320000D01*
X129820000Y-124560000D02*
X129820000Y-120830000D01*
X129820000Y-120830000D02*
X133630000Y-117020000D01*
D26*
X142320000Y-110067100D02*
X142320000Y-111760000D01*
X142328900Y-110058200D02*
X142320000Y-110067100D01*
D24*
X139980000Y-115670000D02*
X139980000Y-114100000D01*
X139980000Y-114100000D02*
X142320000Y-111760000D01*
X139980000Y-124560000D02*
X139980000Y-115670000D01*
X134900000Y-101700000D02*
X134900000Y-100050000D01*
X138710000Y-96240000D02*
X138710000Y-94080000D01*
X134900000Y-100050000D02*
X138710000Y-96240000D01*
X134900000Y-101700000D02*
X135990000Y-101700000D01*
X146330000Y-112040000D02*
X146330000Y-114320000D01*
X135990000Y-101700000D02*
X146330000Y-112040000D01*
D25*
X123470000Y-73760000D02*
X123470000Y-73787600D01*
X123470000Y-73787600D02*
X124683520Y-75001120D01*
X124683520Y-75001120D02*
X124683520Y-79923640D01*
D27*
X124683520Y-79923640D02*
X136170000Y-91410120D01*
X136170000Y-91410120D02*
X136170000Y-94080000D01*
D24*
X133630000Y-114320000D02*
X133630000Y-111860000D01*
X134900000Y-110590000D02*
X134900000Y-109320000D01*
X133630000Y-111860000D02*
X134900000Y-110590000D01*
D26*
X131817120Y-91360000D02*
X129809240Y-89352120D01*
D25*
X131817120Y-91360000D02*
X132080000Y-91360000D01*
D24*
X114580000Y-124560000D02*
X114580000Y-113010000D01*
X114580000Y-113010000D02*
X113610000Y-112040000D01*
D28*
G36*
X162542929Y-71719670D02*
X162859083Y-71930917D01*
X163070330Y-72247071D01*
X163145000Y-72622464D01*
X163145000Y-77620000D01*
X163145480Y-77624877D01*
X163221600Y-78007560D01*
X163225333Y-78016572D01*
X163442106Y-78340996D01*
X163449004Y-78347894D01*
X163773428Y-78564667D01*
X163782440Y-78568400D01*
X164165123Y-78644520D01*
X164170000Y-78645000D01*
X168667536Y-78645000D01*
X169042929Y-78719670D01*
X169359083Y-78930917D01*
X169570330Y-79247071D01*
X169595000Y-79371096D01*
X169595000Y-119368904D01*
X169570330Y-119492929D01*
X169359083Y-119809083D01*
X169042929Y-120020330D01*
X168667536Y-120095000D01*
X163670000Y-120095000D01*
X163665123Y-120095480D01*
X163282440Y-120171600D01*
X163273428Y-120175333D01*
X162949004Y-120392106D01*
X162942106Y-120399004D01*
X162725333Y-120723428D01*
X162721600Y-120732440D01*
X162645480Y-121115123D01*
X162645000Y-121120000D01*
X162645000Y-126117536D01*
X162570330Y-126492929D01*
X162359083Y-126809083D01*
X162042929Y-127020330D01*
X161667536Y-127095000D01*
X113172464Y-127095000D01*
X112797071Y-127020330D01*
X112480917Y-126809083D01*
X112269670Y-126492929D01*
X112195000Y-126117536D01*
X112195000Y-121120000D01*
X112194520Y-121115123D01*
X112118400Y-120732440D01*
X112114667Y-120723428D01*
X111897894Y-120399004D01*
X111890996Y-120392106D01*
X111566572Y-120175333D01*
X111557560Y-120171600D01*
X111174877Y-120095480D01*
X111170000Y-120095000D01*
X106672464Y-120095000D01*
X106297071Y-120020330D01*
X105980917Y-119809083D01*
X105769670Y-119492929D01*
X105695000Y-119117536D01*
X105695000Y-112391520D01*
X111834693Y-112391520D01*
X112104351Y-113044143D01*
X112603231Y-113543894D01*
X113255382Y-113814691D01*
X113961520Y-113815307D01*
X114005000Y-113797341D01*
X114005000Y-123009613D01*
X113310000Y-123009613D01*
X113208091Y-123028788D01*
X113114494Y-123089016D01*
X113051704Y-123180914D01*
X113029613Y-123290000D01*
X113029613Y-125830000D01*
X113048788Y-125931909D01*
X113109016Y-126025506D01*
X113200914Y-126088296D01*
X113310000Y-126110387D01*
X115850000Y-126110387D01*
X115951909Y-126091212D01*
X116045506Y-126030984D01*
X116108296Y-125939086D01*
X116130387Y-125830000D01*
X116130387Y-124865971D01*
X118114733Y-124865971D01*
X118349449Y-125434029D01*
X118783685Y-125869023D01*
X119351332Y-126104731D01*
X119965971Y-126105267D01*
X120534029Y-125870551D01*
X120969023Y-125436315D01*
X121204731Y-124868668D01*
X121205267Y-124254029D01*
X120970551Y-123685971D01*
X120575271Y-123290000D01*
X123189613Y-123290000D01*
X123189613Y-125830000D01*
X123208788Y-125931909D01*
X123269016Y-126025506D01*
X123360914Y-126088296D01*
X123470000Y-126110387D01*
X126010000Y-126110387D01*
X126111909Y-126091212D01*
X126205506Y-126030984D01*
X126268296Y-125939086D01*
X126290387Y-125830000D01*
X126290387Y-124865971D01*
X128274733Y-124865971D01*
X128509449Y-125434029D01*
X128943685Y-125869023D01*
X129511332Y-126104731D01*
X130125971Y-126105267D01*
X130694029Y-125870551D01*
X131129023Y-125436315D01*
X131364731Y-124868668D01*
X131365267Y-124254029D01*
X131130551Y-123685971D01*
X130696315Y-123250977D01*
X130395000Y-123125860D01*
X130395000Y-121068172D01*
X133412786Y-118050387D01*
X134280000Y-118050387D01*
X134381909Y-118031212D01*
X134475506Y-117970984D01*
X134538296Y-117879086D01*
X134560387Y-117770000D01*
X134560387Y-116270000D01*
X134541212Y-116168091D01*
X134480984Y-116074494D01*
X134389086Y-116011704D01*
X134280000Y-115989613D01*
X132980000Y-115989613D01*
X132878091Y-116008788D01*
X132784494Y-116069016D01*
X132721704Y-116160914D01*
X132699613Y-116270000D01*
X132699613Y-117137214D01*
X129413414Y-120423414D01*
X129288769Y-120609957D01*
X129245000Y-120830000D01*
X129245000Y-123125893D01*
X128945971Y-123249449D01*
X128510977Y-123683685D01*
X128275269Y-124251332D01*
X128274733Y-124865971D01*
X126290387Y-124865971D01*
X126290387Y-123290000D01*
X126271212Y-123188091D01*
X126210984Y-123094494D01*
X126119086Y-123031704D01*
X126010000Y-123009613D01*
X125833559Y-123009613D01*
X131496586Y-117346586D01*
X131621231Y-117160043D01*
X131665000Y-116940000D01*
X131665000Y-113570000D01*
X132699613Y-113570000D01*
X132699613Y-115070000D01*
X132718788Y-115171909D01*
X132779016Y-115265506D01*
X132870914Y-115328296D01*
X132980000Y-115350387D01*
X134280000Y-115350387D01*
X134381909Y-115331212D01*
X134475506Y-115270984D01*
X134538296Y-115179086D01*
X134560387Y-115070000D01*
X134560387Y-113570000D01*
X134541212Y-113468091D01*
X134480984Y-113374494D01*
X134389086Y-113311704D01*
X134280000Y-113289613D01*
X134205000Y-113289613D01*
X134205000Y-112098172D01*
X135306586Y-110996587D01*
X135431231Y-110810043D01*
X135475000Y-110590000D01*
X135475000Y-110224906D01*
X135660140Y-110101200D01*
X135893170Y-109752445D01*
X135975000Y-109341060D01*
X135975000Y-109298940D01*
X135893170Y-108887555D01*
X135660140Y-108538800D01*
X135311385Y-108305770D01*
X134900000Y-108223940D01*
X134488615Y-108305770D01*
X134139860Y-108538800D01*
X133906830Y-108887555D01*
X133825000Y-109298940D01*
X133825000Y-109341060D01*
X133906830Y-109752445D01*
X134139860Y-110101200D01*
X134325000Y-110224906D01*
X134325000Y-110351827D01*
X133223414Y-111453414D01*
X133098769Y-111639957D01*
X133055000Y-111860000D01*
X133055000Y-113289613D01*
X132980000Y-113289613D01*
X132878091Y-113308788D01*
X132784494Y-113369016D01*
X132721704Y-113460914D01*
X132699613Y-113570000D01*
X131665000Y-113570000D01*
X131665000Y-110828172D01*
X132124047Y-110369126D01*
X132360000Y-110416060D01*
X132771385Y-110334230D01*
X133120140Y-110101200D01*
X133353170Y-109752445D01*
X133435000Y-109341060D01*
X133435000Y-109298940D01*
X133353170Y-108887555D01*
X133120140Y-108538800D01*
X132771385Y-108305770D01*
X132360000Y-108223940D01*
X131948615Y-108305770D01*
X131599860Y-108538800D01*
X131366830Y-108887555D01*
X131285000Y-109298940D01*
X131285000Y-109341060D01*
X131324946Y-109541881D01*
X130683414Y-110183414D01*
X130558769Y-110369957D01*
X130515000Y-110590000D01*
X130515000Y-116701828D01*
X124333414Y-122883414D01*
X124249090Y-123009613D01*
X123470000Y-123009613D01*
X123368091Y-123028788D01*
X123274494Y-123089016D01*
X123211704Y-123180914D01*
X123189613Y-123290000D01*
X120575271Y-123290000D01*
X120536315Y-123250977D01*
X119968668Y-123015269D01*
X119354029Y-123014733D01*
X118785971Y-123249449D01*
X118350977Y-123683685D01*
X118115269Y-124251332D01*
X118114733Y-124865971D01*
X116130387Y-124865971D01*
X116130387Y-123290000D01*
X116111212Y-123188091D01*
X116050984Y-123094494D01*
X115959086Y-123031704D01*
X115850000Y-123009613D01*
X115155000Y-123009613D01*
X115155000Y-113010000D01*
X115146631Y-112967928D01*
X115365215Y-112441520D01*
X123884693Y-112441520D01*
X124154351Y-113094143D01*
X124653231Y-113593894D01*
X125305382Y-113864691D01*
X126011520Y-113865307D01*
X126664143Y-113595649D01*
X127163894Y-113096769D01*
X127434691Y-112444618D01*
X127435307Y-111738480D01*
X127165649Y-111085857D01*
X126666769Y-110586106D01*
X126014618Y-110315309D01*
X125308480Y-110314693D01*
X124655857Y-110584351D01*
X124156106Y-111083231D01*
X123885309Y-111735382D01*
X123884693Y-112441520D01*
X115365215Y-112441520D01*
X115384691Y-112394618D01*
X115385307Y-111688480D01*
X115115649Y-111035857D01*
X114616769Y-110536106D01*
X113964618Y-110265309D01*
X113258480Y-110264693D01*
X112605857Y-110534351D01*
X112106106Y-111033231D01*
X111835309Y-111685382D01*
X111834693Y-112391520D01*
X105695000Y-112391520D01*
X105695000Y-109622464D01*
X105769670Y-109247071D01*
X105980917Y-108930917D01*
X106297071Y-108719670D01*
X106672464Y-108645000D01*
X109670000Y-108645000D01*
X109674877Y-108644520D01*
X110057560Y-108568400D01*
X110066572Y-108564667D01*
X110390996Y-108347894D01*
X110397894Y-108340996D01*
X110614667Y-108016572D01*
X110618400Y-108007560D01*
X110694520Y-107624877D01*
X110695000Y-107620000D01*
X110695000Y-91620000D01*
X110694520Y-91615123D01*
X110618400Y-91232440D01*
X110614667Y-91223428D01*
X110397894Y-90899004D01*
X110390996Y-90892106D01*
X110066572Y-90675333D01*
X110057560Y-90671600D01*
X109674877Y-90595480D01*
X109670000Y-90595000D01*
X106672464Y-90595000D01*
X106297071Y-90520330D01*
X105980917Y-90309083D01*
X105769670Y-89992929D01*
X105695000Y-89617536D01*
X105695000Y-79622464D01*
X105769670Y-79247071D01*
X105980917Y-78930917D01*
X106297071Y-78719670D01*
X106672464Y-78645000D01*
X111170000Y-78645000D01*
X111174877Y-78644520D01*
X111557560Y-78568400D01*
X111566572Y-78564667D01*
X111890996Y-78347894D01*
X111897894Y-78340996D01*
X112114667Y-78016572D01*
X112118400Y-78007560D01*
X112194520Y-77624877D01*
X112195000Y-77620000D01*
X112195000Y-77280757D01*
X112245416Y-77359106D01*
X112337314Y-77421896D01*
X112446400Y-77443987D01*
X114173600Y-77443987D01*
X114275509Y-77424812D01*
X114369106Y-77364584D01*
X114431896Y-77272686D01*
X114453987Y-77163600D01*
X114453987Y-75436400D01*
X114434812Y-75334491D01*
X114374584Y-75240894D01*
X114282686Y-75178104D01*
X114173600Y-75156013D01*
X112446400Y-75156013D01*
X112344491Y-75175188D01*
X112250894Y-75235416D01*
X112195000Y-75317221D01*
X112195000Y-73900951D01*
X112258071Y-74218029D01*
X112504888Y-74587418D01*
X112874277Y-74834235D01*
X113310000Y-74920906D01*
X113745723Y-74834235D01*
X114115112Y-74587418D01*
X114317181Y-74285000D01*
X114842819Y-74285000D01*
X115044888Y-74587418D01*
X115414277Y-74834235D01*
X115850000Y-74920906D01*
X115971590Y-74896720D01*
X116330663Y-75255793D01*
X116285723Y-75225765D01*
X115850000Y-75139094D01*
X115414277Y-75225765D01*
X115044888Y-75472582D01*
X114798071Y-75841971D01*
X114711400Y-76277694D01*
X114711400Y-76322306D01*
X114798071Y-76758029D01*
X115044888Y-77127418D01*
X115414277Y-77374235D01*
X115850000Y-77460906D01*
X116285723Y-77374235D01*
X116655112Y-77127418D01*
X116805360Y-76902555D01*
X116805360Y-92189331D01*
X116735963Y-92293191D01*
X116696000Y-92494100D01*
X116735963Y-92695009D01*
X116849769Y-92865331D01*
X117929613Y-93945175D01*
X117929613Y-94017925D01*
X113632519Y-98315019D01*
X113307989Y-98314735D01*
X112747285Y-98546414D01*
X112317921Y-98975029D01*
X112085265Y-99535328D01*
X112084735Y-100142011D01*
X112316414Y-100702715D01*
X112745029Y-101132079D01*
X113305328Y-101364735D01*
X113912011Y-101365265D01*
X114472715Y-101133586D01*
X114902079Y-100704971D01*
X114969480Y-100542652D01*
X117703414Y-103276586D01*
X117889957Y-103401231D01*
X118110000Y-103445000D01*
X131190000Y-103445000D01*
X131410043Y-103401231D01*
X131596586Y-103276586D01*
X132124046Y-102749126D01*
X132360000Y-102796060D01*
X132504796Y-102767258D01*
X139095000Y-109357462D01*
X139095000Y-110829613D01*
X138870000Y-110829613D01*
X138768091Y-110848788D01*
X138674494Y-110909016D01*
X138611704Y-111000914D01*
X138589613Y-111110000D01*
X138589613Y-112047925D01*
X137068769Y-113568769D01*
X136954963Y-113739091D01*
X136915000Y-113940000D01*
X136915000Y-114764890D01*
X136853354Y-114790362D01*
X136561387Y-115081820D01*
X136403180Y-115462823D01*
X136402820Y-115875367D01*
X136560362Y-116256646D01*
X136851820Y-116548613D01*
X136915000Y-116574848D01*
X136915000Y-118882538D01*
X134528769Y-121268769D01*
X134414963Y-121439091D01*
X134375000Y-121640000D01*
X134375000Y-123009613D01*
X133630000Y-123009613D01*
X133528091Y-123028788D01*
X133434494Y-123089016D01*
X133371704Y-123180914D01*
X133349613Y-123290000D01*
X133349613Y-125830000D01*
X133368788Y-125931909D01*
X133429016Y-126025506D01*
X133520914Y-126088296D01*
X133630000Y-126110387D01*
X136170000Y-126110387D01*
X136271909Y-126091212D01*
X136365506Y-126030984D01*
X136428296Y-125939086D01*
X136450387Y-125830000D01*
X136450387Y-124865971D01*
X138434733Y-124865971D01*
X138669449Y-125434029D01*
X139103685Y-125869023D01*
X139671332Y-126104731D01*
X140285971Y-126105267D01*
X140854029Y-125870551D01*
X141289023Y-125436315D01*
X141524731Y-124868668D01*
X141525267Y-124254029D01*
X141290551Y-123685971D01*
X140856315Y-123250977D01*
X140555000Y-123125860D01*
X140555000Y-116554450D01*
X140566646Y-116549638D01*
X140858613Y-116258180D01*
X141016820Y-115877177D01*
X141017180Y-115464633D01*
X140859638Y-115083354D01*
X140568180Y-114791387D01*
X140555000Y-114785914D01*
X140555000Y-114338172D01*
X142202786Y-112690387D01*
X143070000Y-112690387D01*
X143171909Y-112671212D01*
X143265506Y-112610984D01*
X143328296Y-112519086D01*
X143350387Y-112410000D01*
X143350387Y-111110000D01*
X143331212Y-111008091D01*
X143270984Y-110914494D01*
X143179086Y-110851704D01*
X143070000Y-110829613D01*
X142845000Y-110829613D01*
X142845000Y-110559640D01*
X142938507Y-110466296D01*
X143048275Y-110201945D01*
X143048525Y-109915710D01*
X142939218Y-109651168D01*
X142736996Y-109448593D01*
X142472645Y-109338825D01*
X142186410Y-109338575D01*
X141921868Y-109447882D01*
X141719293Y-109650104D01*
X141609525Y-109914455D01*
X141609275Y-110200690D01*
X141718582Y-110465232D01*
X141795000Y-110541783D01*
X141795000Y-110829613D01*
X141570000Y-110829613D01*
X141468091Y-110848788D01*
X141374494Y-110909016D01*
X141311704Y-111000914D01*
X141289613Y-111110000D01*
X141289613Y-111977214D01*
X139573414Y-113693414D01*
X139448769Y-113879957D01*
X139405000Y-114100000D01*
X139405000Y-114785550D01*
X139393354Y-114790362D01*
X139101387Y-115081820D01*
X138943180Y-115462823D01*
X138942820Y-115875367D01*
X139100362Y-116256646D01*
X139391820Y-116548613D01*
X139405000Y-116554086D01*
X139405000Y-123125893D01*
X139105971Y-123249449D01*
X138670977Y-123683685D01*
X138435269Y-124251332D01*
X138434733Y-124865971D01*
X136450387Y-124865971D01*
X136450387Y-123290000D01*
X136431212Y-123188091D01*
X136370984Y-123094494D01*
X136279086Y-123031704D01*
X136170000Y-123009613D01*
X135425000Y-123009613D01*
X135425000Y-121857462D01*
X137811231Y-119471231D01*
X137925037Y-119300909D01*
X137965000Y-119100000D01*
X137965000Y-116575110D01*
X138026646Y-116549638D01*
X138318613Y-116258180D01*
X138476820Y-115877177D01*
X138477180Y-115464633D01*
X138319638Y-115083354D01*
X138028180Y-114791387D01*
X137965000Y-114765152D01*
X137965000Y-114157462D01*
X139432075Y-112690387D01*
X140370000Y-112690387D01*
X140471909Y-112671212D01*
X140565506Y-112610984D01*
X140628296Y-112519086D01*
X140650387Y-112410000D01*
X140650387Y-111110000D01*
X140631212Y-111008091D01*
X140570984Y-110914494D01*
X140479086Y-110851704D01*
X140370000Y-110829613D01*
X140145000Y-110829613D01*
X140145000Y-109140000D01*
X140105037Y-108939091D01*
X139991231Y-108768769D01*
X133353458Y-102130996D01*
X133435000Y-101721060D01*
X133435000Y-101678940D01*
X133825000Y-101678940D01*
X133825000Y-101721060D01*
X133906830Y-102132445D01*
X134139860Y-102481200D01*
X134488615Y-102714230D01*
X134900000Y-102796060D01*
X135311385Y-102714230D01*
X135660140Y-102481200D01*
X135779457Y-102302629D01*
X145755000Y-112278173D01*
X145755000Y-113289613D01*
X145680000Y-113289613D01*
X145578091Y-113308788D01*
X145484494Y-113369016D01*
X145421704Y-113460914D01*
X145399613Y-113570000D01*
X145399613Y-115070000D01*
X145418788Y-115171909D01*
X145479016Y-115265506D01*
X145570914Y-115328296D01*
X145680000Y-115350387D01*
X146980000Y-115350387D01*
X147081909Y-115331212D01*
X147175506Y-115270984D01*
X147238296Y-115179086D01*
X147260387Y-115070000D01*
X147260387Y-113570000D01*
X147241212Y-113468091D01*
X147180984Y-113374494D01*
X147089086Y-113311704D01*
X146980000Y-113289613D01*
X146905000Y-113289613D01*
X146905000Y-112040000D01*
X146861231Y-111819957D01*
X146821169Y-111760000D01*
X146736586Y-111633413D01*
X143673173Y-108570000D01*
X148595000Y-108570000D01*
X148595000Y-123570000D01*
X148601245Y-123601396D01*
X148601245Y-123633404D01*
X148677365Y-124016087D01*
X148725892Y-124133243D01*
X148942664Y-124457665D01*
X148942665Y-124457668D01*
X149032333Y-124547335D01*
X149356757Y-124764108D01*
X149473912Y-124812635D01*
X149473913Y-124812635D01*
X149856594Y-124888755D01*
X149983404Y-124888755D01*
X150366087Y-124812635D01*
X150483243Y-124764108D01*
X150483244Y-124764107D01*
X150807665Y-124547336D01*
X150807668Y-124547335D01*
X150897335Y-124457667D01*
X151114108Y-124133243D01*
X151162635Y-124016088D01*
X151162635Y-124016087D01*
X151238755Y-123633404D01*
X151238755Y-123601396D01*
X151245000Y-123570000D01*
X151245000Y-108570000D01*
X151238755Y-108538604D01*
X151238755Y-108506596D01*
X151162635Y-108123913D01*
X151151017Y-108095863D01*
X151114108Y-108006757D01*
X150897335Y-107682333D01*
X150807668Y-107592665D01*
X150807665Y-107592664D01*
X150483243Y-107375892D01*
X150366087Y-107327365D01*
X149983404Y-107251245D01*
X149856594Y-107251245D01*
X149473913Y-107327365D01*
X149473912Y-107327365D01*
X149356757Y-107375892D01*
X149032333Y-107592665D01*
X148942665Y-107682332D01*
X148942665Y-107682333D01*
X148725893Y-108006756D01*
X148725892Y-108006757D01*
X148677365Y-108123913D01*
X148601245Y-108506596D01*
X148601245Y-108538604D01*
X148595000Y-108570000D01*
X143673173Y-108570000D01*
X136396586Y-101293414D01*
X136210043Y-101168769D01*
X135990000Y-101125000D01*
X135797918Y-101125000D01*
X135660140Y-100918800D01*
X135475000Y-100795094D01*
X135475000Y-100288172D01*
X139116587Y-96646586D01*
X139241231Y-96460043D01*
X139285000Y-96240000D01*
X139285000Y-94964450D01*
X139296646Y-94959638D01*
X139588613Y-94668180D01*
X139746820Y-94287177D01*
X139747180Y-93874633D01*
X139589638Y-93493354D01*
X139298180Y-93201387D01*
X138917177Y-93043180D01*
X138504633Y-93042820D01*
X138123354Y-93200362D01*
X137831387Y-93491820D01*
X137673180Y-93872823D01*
X137672820Y-94285367D01*
X137830362Y-94666646D01*
X138121820Y-94958613D01*
X138135000Y-94964086D01*
X138135000Y-96001827D01*
X134493414Y-99643414D01*
X134368769Y-99829957D01*
X134325000Y-100050000D01*
X134325000Y-100795094D01*
X134139860Y-100918800D01*
X133906830Y-101267555D01*
X133825000Y-101678940D01*
X133435000Y-101678940D01*
X133353170Y-101267555D01*
X133120140Y-100918800D01*
X132771385Y-100685770D01*
X132360000Y-100603940D01*
X131948615Y-100685770D01*
X131599860Y-100918800D01*
X131366830Y-101267555D01*
X131285000Y-101678940D01*
X131285000Y-101721060D01*
X131324946Y-101921882D01*
X130951828Y-102295000D01*
X118348172Y-102295000D01*
X115486586Y-99433414D01*
X115300043Y-99308769D01*
X115080000Y-99265000D01*
X115022468Y-99265000D01*
X114903586Y-98977285D01*
X114679577Y-98752885D01*
X115190942Y-98241520D01*
X117884693Y-98241520D01*
X118154351Y-98894143D01*
X118653231Y-99393894D01*
X119305382Y-99664691D01*
X120011520Y-99665307D01*
X120664143Y-99395649D01*
X121163894Y-98896769D01*
X121434691Y-98244618D01*
X121435307Y-97538480D01*
X121165649Y-96885857D01*
X120666769Y-96386106D01*
X120014618Y-96115309D01*
X119308480Y-96114693D01*
X118655857Y-96384351D01*
X118156106Y-96883231D01*
X117885309Y-97535382D01*
X117884693Y-98241520D01*
X115190942Y-98241520D01*
X118622075Y-94810387D01*
X119010000Y-94810387D01*
X119111909Y-94791212D01*
X119205506Y-94730984D01*
X119268296Y-94639086D01*
X119290387Y-94530000D01*
X119290387Y-93630000D01*
X120029613Y-93630000D01*
X120029613Y-94530000D01*
X120048788Y-94631909D01*
X120109016Y-94725506D01*
X120200914Y-94788296D01*
X120310000Y-94810387D01*
X121110000Y-94810387D01*
X121211909Y-94791212D01*
X121305506Y-94730984D01*
X121357423Y-94655000D01*
X122124219Y-94655000D01*
X122137446Y-94675556D01*
X122229344Y-94738346D01*
X122338430Y-94760437D01*
X122663860Y-94760437D01*
X122663860Y-96388860D01*
X122707629Y-96608903D01*
X122832274Y-96795446D01*
X124665192Y-98628364D01*
X124317921Y-98975029D01*
X124085265Y-99535328D01*
X124084735Y-100142011D01*
X124316414Y-100702715D01*
X124745029Y-101132079D01*
X125305328Y-101364735D01*
X125912011Y-101365265D01*
X126472715Y-101133586D01*
X126902079Y-100704971D01*
X127134735Y-100144672D01*
X127135265Y-99537989D01*
X126903586Y-98977285D01*
X126474971Y-98547921D01*
X126020443Y-98359185D01*
X126016586Y-98353413D01*
X123813860Y-96150688D01*
X123813860Y-94760437D01*
X124139290Y-94760437D01*
X124241199Y-94741262D01*
X124334796Y-94681034D01*
X124369699Y-94629950D01*
X125060323Y-94629950D01*
X125060323Y-95430050D01*
X125079498Y-95531959D01*
X125139726Y-95625556D01*
X125231624Y-95688346D01*
X125340710Y-95710437D01*
X127141570Y-95710437D01*
X127243479Y-95691262D01*
X127337076Y-95631034D01*
X127354864Y-95605000D01*
X131110000Y-95605000D01*
X131330043Y-95561231D01*
X131516586Y-95436586D01*
X131862785Y-95090387D01*
X132730000Y-95090387D01*
X132831909Y-95071212D01*
X132925506Y-95010984D01*
X132988296Y-94919086D01*
X133010387Y-94810000D01*
X133010387Y-93310000D01*
X132991212Y-93208091D01*
X132930984Y-93114494D01*
X132839086Y-93051704D01*
X132730000Y-93029613D01*
X131430000Y-93029613D01*
X131328091Y-93048788D01*
X131234494Y-93109016D01*
X131171704Y-93200914D01*
X131149613Y-93310000D01*
X131149613Y-94177215D01*
X130871828Y-94455000D01*
X127355781Y-94455000D01*
X127342554Y-94434444D01*
X127250656Y-94371654D01*
X127141570Y-94349563D01*
X125340710Y-94349563D01*
X125238801Y-94368738D01*
X125145204Y-94428966D01*
X125082414Y-94520864D01*
X125060323Y-94629950D01*
X124369699Y-94629950D01*
X124397586Y-94589136D01*
X124419677Y-94480050D01*
X124419677Y-93679950D01*
X124400502Y-93578041D01*
X124340274Y-93484444D01*
X124248376Y-93421654D01*
X124139290Y-93399563D01*
X122338430Y-93399563D01*
X122236521Y-93418738D01*
X122142924Y-93478966D01*
X122125136Y-93505000D01*
X121356353Y-93505000D01*
X121310984Y-93434494D01*
X121219086Y-93371704D01*
X121110000Y-93349613D01*
X120310000Y-93349613D01*
X120208091Y-93368788D01*
X120114494Y-93429016D01*
X120051704Y-93520914D01*
X120029613Y-93630000D01*
X119290387Y-93630000D01*
X119271212Y-93528091D01*
X119210984Y-93434494D01*
X119119086Y-93371704D01*
X119010000Y-93349613D01*
X118818975Y-93349613D01*
X117592231Y-92122869D01*
X117555360Y-92098232D01*
X117555360Y-89494610D01*
X129089615Y-89494610D01*
X129198922Y-89759152D01*
X129401144Y-89961727D01*
X129665495Y-90071495D01*
X129786258Y-90071600D01*
X131149613Y-91434955D01*
X131149613Y-92110000D01*
X131168788Y-92211909D01*
X131229016Y-92305506D01*
X131320914Y-92368296D01*
X131430000Y-92390387D01*
X132730000Y-92390387D01*
X132831909Y-92371212D01*
X132925506Y-92310984D01*
X132988296Y-92219086D01*
X133010387Y-92110000D01*
X133010387Y-90610000D01*
X132991212Y-90508091D01*
X132930984Y-90414494D01*
X132839086Y-90351704D01*
X132730000Y-90329613D01*
X131529195Y-90329613D01*
X130528761Y-89329179D01*
X130528865Y-89209630D01*
X130419558Y-88945088D01*
X130217336Y-88742513D01*
X129952985Y-88632745D01*
X129666750Y-88632495D01*
X129402208Y-88741802D01*
X129199633Y-88944024D01*
X129089865Y-89208375D01*
X129089615Y-89494610D01*
X117555360Y-89494610D01*
X117555360Y-77083226D01*
X117584888Y-77127418D01*
X117954277Y-77374235D01*
X118390000Y-77460906D01*
X118825723Y-77374235D01*
X119195112Y-77127418D01*
X119441929Y-76758029D01*
X119528600Y-76322306D01*
X119528600Y-76277694D01*
X119791400Y-76277694D01*
X119791400Y-76322306D01*
X119878071Y-76758029D01*
X120124888Y-77127418D01*
X120494277Y-77374235D01*
X120930000Y-77460906D01*
X121365723Y-77374235D01*
X121735112Y-77127418D01*
X121981929Y-76758029D01*
X122068600Y-76322306D01*
X122068600Y-76277694D01*
X121981929Y-75841971D01*
X121735112Y-75472582D01*
X121365723Y-75225765D01*
X120930000Y-75139094D01*
X120494277Y-75225765D01*
X120124888Y-75472582D01*
X119878071Y-75841971D01*
X119791400Y-76277694D01*
X119528600Y-76277694D01*
X119441929Y-75841971D01*
X119195112Y-75472582D01*
X118825723Y-75225765D01*
X118390000Y-75139094D01*
X117954277Y-75225765D01*
X117584888Y-75472582D01*
X117555360Y-75516774D01*
X117555360Y-75438000D01*
X117526815Y-75294494D01*
X117445525Y-75172835D01*
X117323866Y-75091545D01*
X117203042Y-75067512D01*
X116682283Y-74546753D01*
X116901929Y-74218029D01*
X116988600Y-73782306D01*
X116988600Y-73737694D01*
X119791400Y-73737694D01*
X119791400Y-73782306D01*
X119878071Y-74218029D01*
X120124888Y-74587418D01*
X120494277Y-74834235D01*
X120930000Y-74920906D01*
X121365723Y-74834235D01*
X121735112Y-74587418D01*
X121981929Y-74218029D01*
X122068600Y-73782306D01*
X122068600Y-73737694D01*
X122331400Y-73737694D01*
X122331400Y-73782306D01*
X122418071Y-74218029D01*
X122664888Y-74587418D01*
X123034277Y-74834235D01*
X123470000Y-74920906D01*
X123905723Y-74834235D01*
X123954028Y-74801958D01*
X124308520Y-75156450D01*
X124308520Y-79734586D01*
X124290871Y-79760999D01*
X124258521Y-79923640D01*
X124290871Y-80086281D01*
X124383000Y-80224160D01*
X135745000Y-91586161D01*
X135745000Y-93133571D01*
X135583354Y-93200362D01*
X135291387Y-93491820D01*
X135133180Y-93872823D01*
X135132820Y-94285367D01*
X135290362Y-94666646D01*
X135581820Y-94958613D01*
X135962823Y-95116820D01*
X136375367Y-95117180D01*
X136756646Y-94959638D01*
X137048613Y-94668180D01*
X137206820Y-94287177D01*
X137207180Y-93874633D01*
X137049638Y-93493354D01*
X136758180Y-93201387D01*
X136595000Y-93133628D01*
X136595000Y-91410120D01*
X136562649Y-91247480D01*
X136562649Y-91247479D01*
X136470521Y-91109600D01*
X125058520Y-79697600D01*
X125058520Y-76908362D01*
X125204888Y-77127418D01*
X125574277Y-77374235D01*
X126010000Y-77460906D01*
X126445723Y-77374235D01*
X126815112Y-77127418D01*
X127061929Y-76758029D01*
X127148600Y-76322306D01*
X127148600Y-76277694D01*
X127411400Y-76277694D01*
X127411400Y-76322306D01*
X127498071Y-76758029D01*
X127744888Y-77127418D01*
X128114277Y-77374235D01*
X128550000Y-77460906D01*
X128985723Y-77374235D01*
X129355112Y-77127418D01*
X129601929Y-76758029D01*
X129688600Y-76322306D01*
X129688600Y-76277694D01*
X129951400Y-76277694D01*
X129951400Y-76322306D01*
X130038071Y-76758029D01*
X130284888Y-77127418D01*
X130654277Y-77374235D01*
X131090000Y-77460906D01*
X131525723Y-77374235D01*
X131895112Y-77127418D01*
X132141929Y-76758029D01*
X132228600Y-76322306D01*
X132228600Y-76277694D01*
X132491400Y-76277694D01*
X132491400Y-76322306D01*
X132578071Y-76758029D01*
X132824888Y-77127418D01*
X133194277Y-77374235D01*
X133630000Y-77460906D01*
X134065723Y-77374235D01*
X134435112Y-77127418D01*
X134681929Y-76758029D01*
X134768600Y-76322306D01*
X134768600Y-76277694D01*
X135031400Y-76277694D01*
X135031400Y-76322306D01*
X135118071Y-76758029D01*
X135364888Y-77127418D01*
X135734277Y-77374235D01*
X136170000Y-77460906D01*
X136605723Y-77374235D01*
X136975112Y-77127418D01*
X137221929Y-76758029D01*
X137308600Y-76322306D01*
X137308600Y-76277694D01*
X137571400Y-76277694D01*
X137571400Y-76322306D01*
X137658071Y-76758029D01*
X137904888Y-77127418D01*
X138274277Y-77374235D01*
X138710000Y-77460906D01*
X139145723Y-77374235D01*
X139515112Y-77127418D01*
X139761929Y-76758029D01*
X139848600Y-76322306D01*
X139848600Y-76277694D01*
X140111400Y-76277694D01*
X140111400Y-76322306D01*
X140198071Y-76758029D01*
X140444888Y-77127418D01*
X140814277Y-77374235D01*
X141250000Y-77460906D01*
X141685723Y-77374235D01*
X142055112Y-77127418D01*
X142301929Y-76758029D01*
X142388600Y-76322306D01*
X142388600Y-76277694D01*
X145191400Y-76277694D01*
X145191400Y-76322306D01*
X145278071Y-76758029D01*
X145524888Y-77127418D01*
X145894277Y-77374235D01*
X146330000Y-77460906D01*
X146765723Y-77374235D01*
X147135112Y-77127418D01*
X147381929Y-76758029D01*
X147468600Y-76322306D01*
X147468600Y-76277694D01*
X147731400Y-76277694D01*
X147731400Y-76322306D01*
X147818071Y-76758029D01*
X148064888Y-77127418D01*
X148434277Y-77374235D01*
X148870000Y-77460906D01*
X149305723Y-77374235D01*
X149675112Y-77127418D01*
X149921929Y-76758029D01*
X150008600Y-76322306D01*
X150008600Y-76277694D01*
X150271400Y-76277694D01*
X150271400Y-76322306D01*
X150358071Y-76758029D01*
X150604888Y-77127418D01*
X150974277Y-77374235D01*
X151410000Y-77460906D01*
X151845723Y-77374235D01*
X152215112Y-77127418D01*
X152461929Y-76758029D01*
X152548600Y-76322306D01*
X152548600Y-76277694D01*
X152811400Y-76277694D01*
X152811400Y-76322306D01*
X152898071Y-76758029D01*
X153144888Y-77127418D01*
X153514277Y-77374235D01*
X153950000Y-77460906D01*
X154385723Y-77374235D01*
X154755112Y-77127418D01*
X155001929Y-76758029D01*
X155088600Y-76322306D01*
X155088600Y-76277694D01*
X155351400Y-76277694D01*
X155351400Y-76322306D01*
X155438071Y-76758029D01*
X155684888Y-77127418D01*
X156054277Y-77374235D01*
X156490000Y-77460906D01*
X156925723Y-77374235D01*
X157295112Y-77127418D01*
X157541929Y-76758029D01*
X157628600Y-76322306D01*
X157628600Y-76277694D01*
X157891400Y-76277694D01*
X157891400Y-76322306D01*
X157978071Y-76758029D01*
X158224888Y-77127418D01*
X158594277Y-77374235D01*
X159030000Y-77460906D01*
X159465723Y-77374235D01*
X159835112Y-77127418D01*
X160081929Y-76758029D01*
X160168600Y-76322306D01*
X160168600Y-76277694D01*
X160081929Y-75841971D01*
X159835112Y-75472582D01*
X159465723Y-75225765D01*
X159030000Y-75139094D01*
X158594277Y-75225765D01*
X158224888Y-75472582D01*
X157978071Y-75841971D01*
X157891400Y-76277694D01*
X157628600Y-76277694D01*
X157541929Y-75841971D01*
X157295112Y-75472582D01*
X156925723Y-75225765D01*
X156490000Y-75139094D01*
X156054277Y-75225765D01*
X155684888Y-75472582D01*
X155438071Y-75841971D01*
X155351400Y-76277694D01*
X155088600Y-76277694D01*
X155001929Y-75841971D01*
X154755112Y-75472582D01*
X154385723Y-75225765D01*
X153950000Y-75139094D01*
X153514277Y-75225765D01*
X153144888Y-75472582D01*
X152898071Y-75841971D01*
X152811400Y-76277694D01*
X152548600Y-76277694D01*
X152461929Y-75841971D01*
X152215112Y-75472582D01*
X151845723Y-75225765D01*
X151410000Y-75139094D01*
X150974277Y-75225765D01*
X150604888Y-75472582D01*
X150358071Y-75841971D01*
X150271400Y-76277694D01*
X150008600Y-76277694D01*
X149921929Y-75841971D01*
X149675112Y-75472582D01*
X149305723Y-75225765D01*
X148870000Y-75139094D01*
X148434277Y-75225765D01*
X148064888Y-75472582D01*
X147818071Y-75841971D01*
X147731400Y-76277694D01*
X147468600Y-76277694D01*
X147381929Y-75841971D01*
X147135112Y-75472582D01*
X146765723Y-75225765D01*
X146330000Y-75139094D01*
X145894277Y-75225765D01*
X145524888Y-75472582D01*
X145278071Y-75841971D01*
X145191400Y-76277694D01*
X142388600Y-76277694D01*
X142301929Y-75841971D01*
X142055112Y-75472582D01*
X141685723Y-75225765D01*
X141250000Y-75139094D01*
X140814277Y-75225765D01*
X140444888Y-75472582D01*
X140198071Y-75841971D01*
X140111400Y-76277694D01*
X139848600Y-76277694D01*
X139761929Y-75841971D01*
X139515112Y-75472582D01*
X139145723Y-75225765D01*
X138710000Y-75139094D01*
X138274277Y-75225765D01*
X137904888Y-75472582D01*
X137658071Y-75841971D01*
X137571400Y-76277694D01*
X137308600Y-76277694D01*
X137221929Y-75841971D01*
X136975112Y-75472582D01*
X136605723Y-75225765D01*
X136170000Y-75139094D01*
X135734277Y-75225765D01*
X135364888Y-75472582D01*
X135118071Y-75841971D01*
X135031400Y-76277694D01*
X134768600Y-76277694D01*
X134681929Y-75841971D01*
X134435112Y-75472582D01*
X134065723Y-75225765D01*
X133630000Y-75139094D01*
X133194277Y-75225765D01*
X132824888Y-75472582D01*
X132578071Y-75841971D01*
X132491400Y-76277694D01*
X132228600Y-76277694D01*
X132141929Y-75841971D01*
X131895112Y-75472582D01*
X131525723Y-75225765D01*
X131090000Y-75139094D01*
X130654277Y-75225765D01*
X130284888Y-75472582D01*
X130038071Y-75841971D01*
X129951400Y-76277694D01*
X129688600Y-76277694D01*
X129601929Y-75841971D01*
X129355112Y-75472582D01*
X128985723Y-75225765D01*
X128550000Y-75139094D01*
X128114277Y-75225765D01*
X127744888Y-75472582D01*
X127498071Y-75841971D01*
X127411400Y-76277694D01*
X127148600Y-76277694D01*
X127061929Y-75841971D01*
X126815112Y-75472582D01*
X126445723Y-75225765D01*
X126010000Y-75139094D01*
X125574277Y-75225765D01*
X125204888Y-75472582D01*
X125058520Y-75691638D01*
X125058520Y-75001120D01*
X125029975Y-74857614D01*
X124948685Y-74735955D01*
X124485411Y-74272681D01*
X124521929Y-74218029D01*
X124608600Y-73782306D01*
X124608600Y-73737694D01*
X124871400Y-73737694D01*
X124871400Y-73782306D01*
X124958071Y-74218029D01*
X125204888Y-74587418D01*
X125574277Y-74834235D01*
X126010000Y-74920906D01*
X126445723Y-74834235D01*
X126815112Y-74587418D01*
X127061929Y-74218029D01*
X127148600Y-73782306D01*
X127148600Y-73737694D01*
X129951400Y-73737694D01*
X129951400Y-73782306D01*
X130038071Y-74218029D01*
X130284888Y-74587418D01*
X130654277Y-74834235D01*
X131090000Y-74920906D01*
X131525723Y-74834235D01*
X131895112Y-74587418D01*
X132141929Y-74218029D01*
X132228600Y-73782306D01*
X132228600Y-73737694D01*
X132491400Y-73737694D01*
X132491400Y-73782306D01*
X132578071Y-74218029D01*
X132824888Y-74587418D01*
X133194277Y-74834235D01*
X133630000Y-74920906D01*
X134065723Y-74834235D01*
X134435112Y-74587418D01*
X134681929Y-74218029D01*
X134768600Y-73782306D01*
X134768600Y-73737694D01*
X137571400Y-73737694D01*
X137571400Y-73782306D01*
X137658071Y-74218029D01*
X137904888Y-74587418D01*
X138274277Y-74834235D01*
X138710000Y-74920906D01*
X139145723Y-74834235D01*
X139515112Y-74587418D01*
X139761929Y-74218029D01*
X139848600Y-73782306D01*
X139848600Y-73737694D01*
X140111400Y-73737694D01*
X140111400Y-73782306D01*
X140198071Y-74218029D01*
X140444888Y-74587418D01*
X140814277Y-74834235D01*
X141250000Y-74920906D01*
X141685723Y-74834235D01*
X142055112Y-74587418D01*
X142301929Y-74218029D01*
X142388600Y-73782306D01*
X142388600Y-73737694D01*
X142651400Y-73737694D01*
X142651400Y-73782306D01*
X142738071Y-74218029D01*
X142984888Y-74587418D01*
X143354277Y-74834235D01*
X143790000Y-74920906D01*
X144225723Y-74834235D01*
X144595112Y-74587418D01*
X144841929Y-74218029D01*
X144928600Y-73782306D01*
X144928600Y-73737694D01*
X145191400Y-73737694D01*
X145191400Y-73782306D01*
X145278071Y-74218029D01*
X145524888Y-74587418D01*
X145894277Y-74834235D01*
X146330000Y-74920906D01*
X146765723Y-74834235D01*
X147135112Y-74587418D01*
X147381929Y-74218029D01*
X147468600Y-73782306D01*
X147468600Y-73737694D01*
X150271400Y-73737694D01*
X150271400Y-73782306D01*
X150358071Y-74218029D01*
X150604888Y-74587418D01*
X150974277Y-74834235D01*
X151410000Y-74920906D01*
X151845723Y-74834235D01*
X152215112Y-74587418D01*
X152461929Y-74218029D01*
X152548600Y-73782306D01*
X152548600Y-73737694D01*
X155351400Y-73737694D01*
X155351400Y-73782306D01*
X155438071Y-74218029D01*
X155684888Y-74587418D01*
X156054277Y-74834235D01*
X156490000Y-74920906D01*
X156925723Y-74834235D01*
X157295112Y-74587418D01*
X157541929Y-74218029D01*
X157628600Y-73782306D01*
X157628600Y-73737694D01*
X157891400Y-73737694D01*
X157891400Y-73782306D01*
X157978071Y-74218029D01*
X158224888Y-74587418D01*
X158594277Y-74834235D01*
X159030000Y-74920906D01*
X159465723Y-74834235D01*
X159835112Y-74587418D01*
X160081929Y-74218029D01*
X160168600Y-73782306D01*
X160168600Y-73737694D01*
X160431400Y-73737694D01*
X160431400Y-73782306D01*
X160518071Y-74218029D01*
X160764888Y-74587418D01*
X161134277Y-74834235D01*
X161570000Y-74920906D01*
X162005723Y-74834235D01*
X162375112Y-74587418D01*
X162621929Y-74218029D01*
X162708600Y-73782306D01*
X162708600Y-73737694D01*
X162621929Y-73301971D01*
X162375112Y-72932582D01*
X162005723Y-72685765D01*
X161570000Y-72599094D01*
X161134277Y-72685765D01*
X160764888Y-72932582D01*
X160518071Y-73301971D01*
X160431400Y-73737694D01*
X160168600Y-73737694D01*
X160081929Y-73301971D01*
X159835112Y-72932582D01*
X159465723Y-72685765D01*
X159030000Y-72599094D01*
X158594277Y-72685765D01*
X158224888Y-72932582D01*
X157978071Y-73301971D01*
X157891400Y-73737694D01*
X157628600Y-73737694D01*
X157541929Y-73301971D01*
X157295112Y-72932582D01*
X156925723Y-72685765D01*
X156490000Y-72599094D01*
X156054277Y-72685765D01*
X155684888Y-72932582D01*
X155438071Y-73301971D01*
X155351400Y-73737694D01*
X152548600Y-73737694D01*
X152461929Y-73301971D01*
X152215112Y-72932582D01*
X151845723Y-72685765D01*
X151410000Y-72599094D01*
X150974277Y-72685765D01*
X150604888Y-72932582D01*
X150358071Y-73301971D01*
X150271400Y-73737694D01*
X147468600Y-73737694D01*
X147381929Y-73301971D01*
X147135112Y-72932582D01*
X146765723Y-72685765D01*
X146330000Y-72599094D01*
X145894277Y-72685765D01*
X145524888Y-72932582D01*
X145278071Y-73301971D01*
X145191400Y-73737694D01*
X144928600Y-73737694D01*
X144841929Y-73301971D01*
X144595112Y-72932582D01*
X144225723Y-72685765D01*
X143790000Y-72599094D01*
X143354277Y-72685765D01*
X142984888Y-72932582D01*
X142738071Y-73301971D01*
X142651400Y-73737694D01*
X142388600Y-73737694D01*
X142301929Y-73301971D01*
X142055112Y-72932582D01*
X141685723Y-72685765D01*
X141250000Y-72599094D01*
X140814277Y-72685765D01*
X140444888Y-72932582D01*
X140198071Y-73301971D01*
X140111400Y-73737694D01*
X139848600Y-73737694D01*
X139761929Y-73301971D01*
X139515112Y-72932582D01*
X139145723Y-72685765D01*
X138710000Y-72599094D01*
X138274277Y-72685765D01*
X137904888Y-72932582D01*
X137658071Y-73301971D01*
X137571400Y-73737694D01*
X134768600Y-73737694D01*
X134681929Y-73301971D01*
X134435112Y-72932582D01*
X134065723Y-72685765D01*
X133630000Y-72599094D01*
X133194277Y-72685765D01*
X132824888Y-72932582D01*
X132578071Y-73301971D01*
X132491400Y-73737694D01*
X132228600Y-73737694D01*
X132141929Y-73301971D01*
X131895112Y-72932582D01*
X131525723Y-72685765D01*
X131090000Y-72599094D01*
X130654277Y-72685765D01*
X130284888Y-72932582D01*
X130038071Y-73301971D01*
X129951400Y-73737694D01*
X127148600Y-73737694D01*
X127061929Y-73301971D01*
X126815112Y-72932582D01*
X126445723Y-72685765D01*
X126010000Y-72599094D01*
X125574277Y-72685765D01*
X125204888Y-72932582D01*
X124958071Y-73301971D01*
X124871400Y-73737694D01*
X124608600Y-73737694D01*
X124521929Y-73301971D01*
X124275112Y-72932582D01*
X123905723Y-72685765D01*
X123470000Y-72599094D01*
X123034277Y-72685765D01*
X122664888Y-72932582D01*
X122418071Y-73301971D01*
X122331400Y-73737694D01*
X122068600Y-73737694D01*
X121981929Y-73301971D01*
X121735112Y-72932582D01*
X121365723Y-72685765D01*
X120930000Y-72599094D01*
X120494277Y-72685765D01*
X120124888Y-72932582D01*
X119878071Y-73301971D01*
X119791400Y-73737694D01*
X116988600Y-73737694D01*
X116901929Y-73301971D01*
X116655112Y-72932582D01*
X116285723Y-72685765D01*
X115850000Y-72599094D01*
X115414277Y-72685765D01*
X115044888Y-72932582D01*
X114842819Y-73235000D01*
X114317181Y-73235000D01*
X114115112Y-72932582D01*
X113745723Y-72685765D01*
X113310000Y-72599094D01*
X112874277Y-72685765D01*
X112504888Y-72932582D01*
X112258071Y-73301971D01*
X112195000Y-73619049D01*
X112195000Y-72622464D01*
X112269670Y-72247071D01*
X112480917Y-71930917D01*
X112797071Y-71719670D01*
X113172464Y-71645000D01*
X162167536Y-71645000D01*
X162542929Y-71719670D01*
X162542929Y-71719670D01*
G37*
X162542929Y-71719670D02*
X162859083Y-71930917D01*
X163070330Y-72247071D01*
X163145000Y-72622464D01*
X163145000Y-77620000D01*
X163145480Y-77624877D01*
X163221600Y-78007560D01*
X163225333Y-78016572D01*
X163442106Y-78340996D01*
X163449004Y-78347894D01*
X163773428Y-78564667D01*
X163782440Y-78568400D01*
X164165123Y-78644520D01*
X164170000Y-78645000D01*
X168667536Y-78645000D01*
X169042929Y-78719670D01*
X169359083Y-78930917D01*
X169570330Y-79247071D01*
X169595000Y-79371096D01*
X169595000Y-119368904D01*
X169570330Y-119492929D01*
X169359083Y-119809083D01*
X169042929Y-120020330D01*
X168667536Y-120095000D01*
X163670000Y-120095000D01*
X163665123Y-120095480D01*
X163282440Y-120171600D01*
X163273428Y-120175333D01*
X162949004Y-120392106D01*
X162942106Y-120399004D01*
X162725333Y-120723428D01*
X162721600Y-120732440D01*
X162645480Y-121115123D01*
X162645000Y-121120000D01*
X162645000Y-126117536D01*
X162570330Y-126492929D01*
X162359083Y-126809083D01*
X162042929Y-127020330D01*
X161667536Y-127095000D01*
X113172464Y-127095000D01*
X112797071Y-127020330D01*
X112480917Y-126809083D01*
X112269670Y-126492929D01*
X112195000Y-126117536D01*
X112195000Y-121120000D01*
X112194520Y-121115123D01*
X112118400Y-120732440D01*
X112114667Y-120723428D01*
X111897894Y-120399004D01*
X111890996Y-120392106D01*
X111566572Y-120175333D01*
X111557560Y-120171600D01*
X111174877Y-120095480D01*
X111170000Y-120095000D01*
X106672464Y-120095000D01*
X106297071Y-120020330D01*
X105980917Y-119809083D01*
X105769670Y-119492929D01*
X105695000Y-119117536D01*
X105695000Y-112391520D01*
X111834693Y-112391520D01*
X112104351Y-113044143D01*
X112603231Y-113543894D01*
X113255382Y-113814691D01*
X113961520Y-113815307D01*
X114005000Y-113797341D01*
X114005000Y-123009613D01*
X113310000Y-123009613D01*
X113208091Y-123028788D01*
X113114494Y-123089016D01*
X113051704Y-123180914D01*
X113029613Y-123290000D01*
X113029613Y-125830000D01*
X113048788Y-125931909D01*
X113109016Y-126025506D01*
X113200914Y-126088296D01*
X113310000Y-126110387D01*
X115850000Y-126110387D01*
X115951909Y-126091212D01*
X116045506Y-126030984D01*
X116108296Y-125939086D01*
X116130387Y-125830000D01*
X116130387Y-124865971D01*
X118114733Y-124865971D01*
X118349449Y-125434029D01*
X118783685Y-125869023D01*
X119351332Y-126104731D01*
X119965971Y-126105267D01*
X120534029Y-125870551D01*
X120969023Y-125436315D01*
X121204731Y-124868668D01*
X121205267Y-124254029D01*
X120970551Y-123685971D01*
X120575271Y-123290000D01*
X123189613Y-123290000D01*
X123189613Y-125830000D01*
X123208788Y-125931909D01*
X123269016Y-126025506D01*
X123360914Y-126088296D01*
X123470000Y-126110387D01*
X126010000Y-126110387D01*
X126111909Y-126091212D01*
X126205506Y-126030984D01*
X126268296Y-125939086D01*
X126290387Y-125830000D01*
X126290387Y-124865971D01*
X128274733Y-124865971D01*
X128509449Y-125434029D01*
X128943685Y-125869023D01*
X129511332Y-126104731D01*
X130125971Y-126105267D01*
X130694029Y-125870551D01*
X131129023Y-125436315D01*
X131364731Y-124868668D01*
X131365267Y-124254029D01*
X131130551Y-123685971D01*
X130696315Y-123250977D01*
X130395000Y-123125860D01*
X130395000Y-121068172D01*
X133412786Y-118050387D01*
X134280000Y-118050387D01*
X134381909Y-118031212D01*
X134475506Y-117970984D01*
X134538296Y-117879086D01*
X134560387Y-117770000D01*
X134560387Y-116270000D01*
X134541212Y-116168091D01*
X134480984Y-116074494D01*
X134389086Y-116011704D01*
X134280000Y-115989613D01*
X132980000Y-115989613D01*
X132878091Y-116008788D01*
X132784494Y-116069016D01*
X132721704Y-116160914D01*
X132699613Y-116270000D01*
X132699613Y-117137214D01*
X129413414Y-120423414D01*
X129288769Y-120609957D01*
X129245000Y-120830000D01*
X129245000Y-123125893D01*
X128945971Y-123249449D01*
X128510977Y-123683685D01*
X128275269Y-124251332D01*
X128274733Y-124865971D01*
X126290387Y-124865971D01*
X126290387Y-123290000D01*
X126271212Y-123188091D01*
X126210984Y-123094494D01*
X126119086Y-123031704D01*
X126010000Y-123009613D01*
X125833559Y-123009613D01*
X131496586Y-117346586D01*
X131621231Y-117160043D01*
X131665000Y-116940000D01*
X131665000Y-113570000D01*
X132699613Y-113570000D01*
X132699613Y-115070000D01*
X132718788Y-115171909D01*
X132779016Y-115265506D01*
X132870914Y-115328296D01*
X132980000Y-115350387D01*
X134280000Y-115350387D01*
X134381909Y-115331212D01*
X134475506Y-115270984D01*
X134538296Y-115179086D01*
X134560387Y-115070000D01*
X134560387Y-113570000D01*
X134541212Y-113468091D01*
X134480984Y-113374494D01*
X134389086Y-113311704D01*
X134280000Y-113289613D01*
X134205000Y-113289613D01*
X134205000Y-112098172D01*
X135306586Y-110996587D01*
X135431231Y-110810043D01*
X135475000Y-110590000D01*
X135475000Y-110224906D01*
X135660140Y-110101200D01*
X135893170Y-109752445D01*
X135975000Y-109341060D01*
X135975000Y-109298940D01*
X135893170Y-108887555D01*
X135660140Y-108538800D01*
X135311385Y-108305770D01*
X134900000Y-108223940D01*
X134488615Y-108305770D01*
X134139860Y-108538800D01*
X133906830Y-108887555D01*
X133825000Y-109298940D01*
X133825000Y-109341060D01*
X133906830Y-109752445D01*
X134139860Y-110101200D01*
X134325000Y-110224906D01*
X134325000Y-110351827D01*
X133223414Y-111453414D01*
X133098769Y-111639957D01*
X133055000Y-111860000D01*
X133055000Y-113289613D01*
X132980000Y-113289613D01*
X132878091Y-113308788D01*
X132784494Y-113369016D01*
X132721704Y-113460914D01*
X132699613Y-113570000D01*
X131665000Y-113570000D01*
X131665000Y-110828172D01*
X132124047Y-110369126D01*
X132360000Y-110416060D01*
X132771385Y-110334230D01*
X133120140Y-110101200D01*
X133353170Y-109752445D01*
X133435000Y-109341060D01*
X133435000Y-109298940D01*
X133353170Y-108887555D01*
X133120140Y-108538800D01*
X132771385Y-108305770D01*
X132360000Y-108223940D01*
X131948615Y-108305770D01*
X131599860Y-108538800D01*
X131366830Y-108887555D01*
X131285000Y-109298940D01*
X131285000Y-109341060D01*
X131324946Y-109541881D01*
X130683414Y-110183414D01*
X130558769Y-110369957D01*
X130515000Y-110590000D01*
X130515000Y-116701828D01*
X124333414Y-122883414D01*
X124249090Y-123009613D01*
X123470000Y-123009613D01*
X123368091Y-123028788D01*
X123274494Y-123089016D01*
X123211704Y-123180914D01*
X123189613Y-123290000D01*
X120575271Y-123290000D01*
X120536315Y-123250977D01*
X119968668Y-123015269D01*
X119354029Y-123014733D01*
X118785971Y-123249449D01*
X118350977Y-123683685D01*
X118115269Y-124251332D01*
X118114733Y-124865971D01*
X116130387Y-124865971D01*
X116130387Y-123290000D01*
X116111212Y-123188091D01*
X116050984Y-123094494D01*
X115959086Y-123031704D01*
X115850000Y-123009613D01*
X115155000Y-123009613D01*
X115155000Y-113010000D01*
X115146631Y-112967928D01*
X115365215Y-112441520D01*
X123884693Y-112441520D01*
X124154351Y-113094143D01*
X124653231Y-113593894D01*
X125305382Y-113864691D01*
X126011520Y-113865307D01*
X126664143Y-113595649D01*
X127163894Y-113096769D01*
X127434691Y-112444618D01*
X127435307Y-111738480D01*
X127165649Y-111085857D01*
X126666769Y-110586106D01*
X126014618Y-110315309D01*
X125308480Y-110314693D01*
X124655857Y-110584351D01*
X124156106Y-111083231D01*
X123885309Y-111735382D01*
X123884693Y-112441520D01*
X115365215Y-112441520D01*
X115384691Y-112394618D01*
X115385307Y-111688480D01*
X115115649Y-111035857D01*
X114616769Y-110536106D01*
X113964618Y-110265309D01*
X113258480Y-110264693D01*
X112605857Y-110534351D01*
X112106106Y-111033231D01*
X111835309Y-111685382D01*
X111834693Y-112391520D01*
X105695000Y-112391520D01*
X105695000Y-109622464D01*
X105769670Y-109247071D01*
X105980917Y-108930917D01*
X106297071Y-108719670D01*
X106672464Y-108645000D01*
X109670000Y-108645000D01*
X109674877Y-108644520D01*
X110057560Y-108568400D01*
X110066572Y-108564667D01*
X110390996Y-108347894D01*
X110397894Y-108340996D01*
X110614667Y-108016572D01*
X110618400Y-108007560D01*
X110694520Y-107624877D01*
X110695000Y-107620000D01*
X110695000Y-91620000D01*
X110694520Y-91615123D01*
X110618400Y-91232440D01*
X110614667Y-91223428D01*
X110397894Y-90899004D01*
X110390996Y-90892106D01*
X110066572Y-90675333D01*
X110057560Y-90671600D01*
X109674877Y-90595480D01*
X109670000Y-90595000D01*
X106672464Y-90595000D01*
X106297071Y-90520330D01*
X105980917Y-90309083D01*
X105769670Y-89992929D01*
X105695000Y-89617536D01*
X105695000Y-79622464D01*
X105769670Y-79247071D01*
X105980917Y-78930917D01*
X106297071Y-78719670D01*
X106672464Y-78645000D01*
X111170000Y-78645000D01*
X111174877Y-78644520D01*
X111557560Y-78568400D01*
X111566572Y-78564667D01*
X111890996Y-78347894D01*
X111897894Y-78340996D01*
X112114667Y-78016572D01*
X112118400Y-78007560D01*
X112194520Y-77624877D01*
X112195000Y-77620000D01*
X112195000Y-77280757D01*
X112245416Y-77359106D01*
X112337314Y-77421896D01*
X112446400Y-77443987D01*
X114173600Y-77443987D01*
X114275509Y-77424812D01*
X114369106Y-77364584D01*
X114431896Y-77272686D01*
X114453987Y-77163600D01*
X114453987Y-75436400D01*
X114434812Y-75334491D01*
X114374584Y-75240894D01*
X114282686Y-75178104D01*
X114173600Y-75156013D01*
X112446400Y-75156013D01*
X112344491Y-75175188D01*
X112250894Y-75235416D01*
X112195000Y-75317221D01*
X112195000Y-73900951D01*
X112258071Y-74218029D01*
X112504888Y-74587418D01*
X112874277Y-74834235D01*
X113310000Y-74920906D01*
X113745723Y-74834235D01*
X114115112Y-74587418D01*
X114317181Y-74285000D01*
X114842819Y-74285000D01*
X115044888Y-74587418D01*
X115414277Y-74834235D01*
X115850000Y-74920906D01*
X115971590Y-74896720D01*
X116330663Y-75255793D01*
X116285723Y-75225765D01*
X115850000Y-75139094D01*
X115414277Y-75225765D01*
X115044888Y-75472582D01*
X114798071Y-75841971D01*
X114711400Y-76277694D01*
X114711400Y-76322306D01*
X114798071Y-76758029D01*
X115044888Y-77127418D01*
X115414277Y-77374235D01*
X115850000Y-77460906D01*
X116285723Y-77374235D01*
X116655112Y-77127418D01*
X116805360Y-76902555D01*
X116805360Y-92189331D01*
X116735963Y-92293191D01*
X116696000Y-92494100D01*
X116735963Y-92695009D01*
X116849769Y-92865331D01*
X117929613Y-93945175D01*
X117929613Y-94017925D01*
X113632519Y-98315019D01*
X113307989Y-98314735D01*
X112747285Y-98546414D01*
X112317921Y-98975029D01*
X112085265Y-99535328D01*
X112084735Y-100142011D01*
X112316414Y-100702715D01*
X112745029Y-101132079D01*
X113305328Y-101364735D01*
X113912011Y-101365265D01*
X114472715Y-101133586D01*
X114902079Y-100704971D01*
X114969480Y-100542652D01*
X117703414Y-103276586D01*
X117889957Y-103401231D01*
X118110000Y-103445000D01*
X131190000Y-103445000D01*
X131410043Y-103401231D01*
X131596586Y-103276586D01*
X132124046Y-102749126D01*
X132360000Y-102796060D01*
X132504796Y-102767258D01*
X139095000Y-109357462D01*
X139095000Y-110829613D01*
X138870000Y-110829613D01*
X138768091Y-110848788D01*
X138674494Y-110909016D01*
X138611704Y-111000914D01*
X138589613Y-111110000D01*
X138589613Y-112047925D01*
X137068769Y-113568769D01*
X136954963Y-113739091D01*
X136915000Y-113940000D01*
X136915000Y-114764890D01*
X136853354Y-114790362D01*
X136561387Y-115081820D01*
X136403180Y-115462823D01*
X136402820Y-115875367D01*
X136560362Y-116256646D01*
X136851820Y-116548613D01*
X136915000Y-116574848D01*
X136915000Y-118882538D01*
X134528769Y-121268769D01*
X134414963Y-121439091D01*
X134375000Y-121640000D01*
X134375000Y-123009613D01*
X133630000Y-123009613D01*
X133528091Y-123028788D01*
X133434494Y-123089016D01*
X133371704Y-123180914D01*
X133349613Y-123290000D01*
X133349613Y-125830000D01*
X133368788Y-125931909D01*
X133429016Y-126025506D01*
X133520914Y-126088296D01*
X133630000Y-126110387D01*
X136170000Y-126110387D01*
X136271909Y-126091212D01*
X136365506Y-126030984D01*
X136428296Y-125939086D01*
X136450387Y-125830000D01*
X136450387Y-124865971D01*
X138434733Y-124865971D01*
X138669449Y-125434029D01*
X139103685Y-125869023D01*
X139671332Y-126104731D01*
X140285971Y-126105267D01*
X140854029Y-125870551D01*
X141289023Y-125436315D01*
X141524731Y-124868668D01*
X141525267Y-124254029D01*
X141290551Y-123685971D01*
X140856315Y-123250977D01*
X140555000Y-123125860D01*
X140555000Y-116554450D01*
X140566646Y-116549638D01*
X140858613Y-116258180D01*
X141016820Y-115877177D01*
X141017180Y-115464633D01*
X140859638Y-115083354D01*
X140568180Y-114791387D01*
X140555000Y-114785914D01*
X140555000Y-114338172D01*
X142202786Y-112690387D01*
X143070000Y-112690387D01*
X143171909Y-112671212D01*
X143265506Y-112610984D01*
X143328296Y-112519086D01*
X143350387Y-112410000D01*
X143350387Y-111110000D01*
X143331212Y-111008091D01*
X143270984Y-110914494D01*
X143179086Y-110851704D01*
X143070000Y-110829613D01*
X142845000Y-110829613D01*
X142845000Y-110559640D01*
X142938507Y-110466296D01*
X143048275Y-110201945D01*
X143048525Y-109915710D01*
X142939218Y-109651168D01*
X142736996Y-109448593D01*
X142472645Y-109338825D01*
X142186410Y-109338575D01*
X141921868Y-109447882D01*
X141719293Y-109650104D01*
X141609525Y-109914455D01*
X141609275Y-110200690D01*
X141718582Y-110465232D01*
X141795000Y-110541783D01*
X141795000Y-110829613D01*
X141570000Y-110829613D01*
X141468091Y-110848788D01*
X141374494Y-110909016D01*
X141311704Y-111000914D01*
X141289613Y-111110000D01*
X141289613Y-111977214D01*
X139573414Y-113693414D01*
X139448769Y-113879957D01*
X139405000Y-114100000D01*
X139405000Y-114785550D01*
X139393354Y-114790362D01*
X139101387Y-115081820D01*
X138943180Y-115462823D01*
X138942820Y-115875367D01*
X139100362Y-116256646D01*
X139391820Y-116548613D01*
X139405000Y-116554086D01*
X139405000Y-123125893D01*
X139105971Y-123249449D01*
X138670977Y-123683685D01*
X138435269Y-124251332D01*
X138434733Y-124865971D01*
X136450387Y-124865971D01*
X136450387Y-123290000D01*
X136431212Y-123188091D01*
X136370984Y-123094494D01*
X136279086Y-123031704D01*
X136170000Y-123009613D01*
X135425000Y-123009613D01*
X135425000Y-121857462D01*
X137811231Y-119471231D01*
X137925037Y-119300909D01*
X137965000Y-119100000D01*
X137965000Y-116575110D01*
X138026646Y-116549638D01*
X138318613Y-116258180D01*
X138476820Y-115877177D01*
X138477180Y-115464633D01*
X138319638Y-115083354D01*
X138028180Y-114791387D01*
X137965000Y-114765152D01*
X137965000Y-114157462D01*
X139432075Y-112690387D01*
X140370000Y-112690387D01*
X140471909Y-112671212D01*
X140565506Y-112610984D01*
X140628296Y-112519086D01*
X140650387Y-112410000D01*
X140650387Y-111110000D01*
X140631212Y-111008091D01*
X140570984Y-110914494D01*
X140479086Y-110851704D01*
X140370000Y-110829613D01*
X140145000Y-110829613D01*
X140145000Y-109140000D01*
X140105037Y-108939091D01*
X139991231Y-108768769D01*
X133353458Y-102130996D01*
X133435000Y-101721060D01*
X133435000Y-101678940D01*
X133825000Y-101678940D01*
X133825000Y-101721060D01*
X133906830Y-102132445D01*
X134139860Y-102481200D01*
X134488615Y-102714230D01*
X134900000Y-102796060D01*
X135311385Y-102714230D01*
X135660140Y-102481200D01*
X135779457Y-102302629D01*
X145755000Y-112278173D01*
X145755000Y-113289613D01*
X145680000Y-113289613D01*
X145578091Y-113308788D01*
X145484494Y-113369016D01*
X145421704Y-113460914D01*
X145399613Y-113570000D01*
X145399613Y-115070000D01*
X145418788Y-115171909D01*
X145479016Y-115265506D01*
X145570914Y-115328296D01*
X145680000Y-115350387D01*
X146980000Y-115350387D01*
X147081909Y-115331212D01*
X147175506Y-115270984D01*
X147238296Y-115179086D01*
X147260387Y-115070000D01*
X147260387Y-113570000D01*
X147241212Y-113468091D01*
X147180984Y-113374494D01*
X147089086Y-113311704D01*
X146980000Y-113289613D01*
X146905000Y-113289613D01*
X146905000Y-112040000D01*
X146861231Y-111819957D01*
X146821169Y-111760000D01*
X146736586Y-111633413D01*
X143673173Y-108570000D01*
X148595000Y-108570000D01*
X148595000Y-123570000D01*
X148601245Y-123601396D01*
X148601245Y-123633404D01*
X148677365Y-124016087D01*
X148725892Y-124133243D01*
X148942664Y-124457665D01*
X148942665Y-124457668D01*
X149032333Y-124547335D01*
X149356757Y-124764108D01*
X149473912Y-124812635D01*
X149473913Y-124812635D01*
X149856594Y-124888755D01*
X149983404Y-124888755D01*
X150366087Y-124812635D01*
X150483243Y-124764108D01*
X150483244Y-124764107D01*
X150807665Y-124547336D01*
X150807668Y-124547335D01*
X150897335Y-124457667D01*
X151114108Y-124133243D01*
X151162635Y-124016088D01*
X151162635Y-124016087D01*
X151238755Y-123633404D01*
X151238755Y-123601396D01*
X151245000Y-123570000D01*
X151245000Y-108570000D01*
X151238755Y-108538604D01*
X151238755Y-108506596D01*
X151162635Y-108123913D01*
X151151017Y-108095863D01*
X151114108Y-108006757D01*
X150897335Y-107682333D01*
X150807668Y-107592665D01*
X150807665Y-107592664D01*
X150483243Y-107375892D01*
X150366087Y-107327365D01*
X149983404Y-107251245D01*
X149856594Y-107251245D01*
X149473913Y-107327365D01*
X149473912Y-107327365D01*
X149356757Y-107375892D01*
X149032333Y-107592665D01*
X148942665Y-107682332D01*
X148942665Y-107682333D01*
X148725893Y-108006756D01*
X148725892Y-108006757D01*
X148677365Y-108123913D01*
X148601245Y-108506596D01*
X148601245Y-108538604D01*
X148595000Y-108570000D01*
X143673173Y-108570000D01*
X136396586Y-101293414D01*
X136210043Y-101168769D01*
X135990000Y-101125000D01*
X135797918Y-101125000D01*
X135660140Y-100918800D01*
X135475000Y-100795094D01*
X135475000Y-100288172D01*
X139116587Y-96646586D01*
X139241231Y-96460043D01*
X139285000Y-96240000D01*
X139285000Y-94964450D01*
X139296646Y-94959638D01*
X139588613Y-94668180D01*
X139746820Y-94287177D01*
X139747180Y-93874633D01*
X139589638Y-93493354D01*
X139298180Y-93201387D01*
X138917177Y-93043180D01*
X138504633Y-93042820D01*
X138123354Y-93200362D01*
X137831387Y-93491820D01*
X137673180Y-93872823D01*
X137672820Y-94285367D01*
X137830362Y-94666646D01*
X138121820Y-94958613D01*
X138135000Y-94964086D01*
X138135000Y-96001827D01*
X134493414Y-99643414D01*
X134368769Y-99829957D01*
X134325000Y-100050000D01*
X134325000Y-100795094D01*
X134139860Y-100918800D01*
X133906830Y-101267555D01*
X133825000Y-101678940D01*
X133435000Y-101678940D01*
X133353170Y-101267555D01*
X133120140Y-100918800D01*
X132771385Y-100685770D01*
X132360000Y-100603940D01*
X131948615Y-100685770D01*
X131599860Y-100918800D01*
X131366830Y-101267555D01*
X131285000Y-101678940D01*
X131285000Y-101721060D01*
X131324946Y-101921882D01*
X130951828Y-102295000D01*
X118348172Y-102295000D01*
X115486586Y-99433414D01*
X115300043Y-99308769D01*
X115080000Y-99265000D01*
X115022468Y-99265000D01*
X114903586Y-98977285D01*
X114679577Y-98752885D01*
X115190942Y-98241520D01*
X117884693Y-98241520D01*
X118154351Y-98894143D01*
X118653231Y-99393894D01*
X119305382Y-99664691D01*
X120011520Y-99665307D01*
X120664143Y-99395649D01*
X121163894Y-98896769D01*
X121434691Y-98244618D01*
X121435307Y-97538480D01*
X121165649Y-96885857D01*
X120666769Y-96386106D01*
X120014618Y-96115309D01*
X119308480Y-96114693D01*
X118655857Y-96384351D01*
X118156106Y-96883231D01*
X117885309Y-97535382D01*
X117884693Y-98241520D01*
X115190942Y-98241520D01*
X118622075Y-94810387D01*
X119010000Y-94810387D01*
X119111909Y-94791212D01*
X119205506Y-94730984D01*
X119268296Y-94639086D01*
X119290387Y-94530000D01*
X119290387Y-93630000D01*
X120029613Y-93630000D01*
X120029613Y-94530000D01*
X120048788Y-94631909D01*
X120109016Y-94725506D01*
X120200914Y-94788296D01*
X120310000Y-94810387D01*
X121110000Y-94810387D01*
X121211909Y-94791212D01*
X121305506Y-94730984D01*
X121357423Y-94655000D01*
X122124219Y-94655000D01*
X122137446Y-94675556D01*
X122229344Y-94738346D01*
X122338430Y-94760437D01*
X122663860Y-94760437D01*
X122663860Y-96388860D01*
X122707629Y-96608903D01*
X122832274Y-96795446D01*
X124665192Y-98628364D01*
X124317921Y-98975029D01*
X124085265Y-99535328D01*
X124084735Y-100142011D01*
X124316414Y-100702715D01*
X124745029Y-101132079D01*
X125305328Y-101364735D01*
X125912011Y-101365265D01*
X126472715Y-101133586D01*
X126902079Y-100704971D01*
X127134735Y-100144672D01*
X127135265Y-99537989D01*
X126903586Y-98977285D01*
X126474971Y-98547921D01*
X126020443Y-98359185D01*
X126016586Y-98353413D01*
X123813860Y-96150688D01*
X123813860Y-94760437D01*
X124139290Y-94760437D01*
X124241199Y-94741262D01*
X124334796Y-94681034D01*
X124369699Y-94629950D01*
X125060323Y-94629950D01*
X125060323Y-95430050D01*
X125079498Y-95531959D01*
X125139726Y-95625556D01*
X125231624Y-95688346D01*
X125340710Y-95710437D01*
X127141570Y-95710437D01*
X127243479Y-95691262D01*
X127337076Y-95631034D01*
X127354864Y-95605000D01*
X131110000Y-95605000D01*
X131330043Y-95561231D01*
X131516586Y-95436586D01*
X131862785Y-95090387D01*
X132730000Y-95090387D01*
X132831909Y-95071212D01*
X132925506Y-95010984D01*
X132988296Y-94919086D01*
X133010387Y-94810000D01*
X133010387Y-93310000D01*
X132991212Y-93208091D01*
X132930984Y-93114494D01*
X132839086Y-93051704D01*
X132730000Y-93029613D01*
X131430000Y-93029613D01*
X131328091Y-93048788D01*
X131234494Y-93109016D01*
X131171704Y-93200914D01*
X131149613Y-93310000D01*
X131149613Y-94177215D01*
X130871828Y-94455000D01*
X127355781Y-94455000D01*
X127342554Y-94434444D01*
X127250656Y-94371654D01*
X127141570Y-94349563D01*
X125340710Y-94349563D01*
X125238801Y-94368738D01*
X125145204Y-94428966D01*
X125082414Y-94520864D01*
X125060323Y-94629950D01*
X124369699Y-94629950D01*
X124397586Y-94589136D01*
X124419677Y-94480050D01*
X124419677Y-93679950D01*
X124400502Y-93578041D01*
X124340274Y-93484444D01*
X124248376Y-93421654D01*
X124139290Y-93399563D01*
X122338430Y-93399563D01*
X122236521Y-93418738D01*
X122142924Y-93478966D01*
X122125136Y-93505000D01*
X121356353Y-93505000D01*
X121310984Y-93434494D01*
X121219086Y-93371704D01*
X121110000Y-93349613D01*
X120310000Y-93349613D01*
X120208091Y-93368788D01*
X120114494Y-93429016D01*
X120051704Y-93520914D01*
X120029613Y-93630000D01*
X119290387Y-93630000D01*
X119271212Y-93528091D01*
X119210984Y-93434494D01*
X119119086Y-93371704D01*
X119010000Y-93349613D01*
X118818975Y-93349613D01*
X117592231Y-92122869D01*
X117555360Y-92098232D01*
X117555360Y-89494610D01*
X129089615Y-89494610D01*
X129198922Y-89759152D01*
X129401144Y-89961727D01*
X129665495Y-90071495D01*
X129786258Y-90071600D01*
X131149613Y-91434955D01*
X131149613Y-92110000D01*
X131168788Y-92211909D01*
X131229016Y-92305506D01*
X131320914Y-92368296D01*
X131430000Y-92390387D01*
X132730000Y-92390387D01*
X132831909Y-92371212D01*
X132925506Y-92310984D01*
X132988296Y-92219086D01*
X133010387Y-92110000D01*
X133010387Y-90610000D01*
X132991212Y-90508091D01*
X132930984Y-90414494D01*
X132839086Y-90351704D01*
X132730000Y-90329613D01*
X131529195Y-90329613D01*
X130528761Y-89329179D01*
X130528865Y-89209630D01*
X130419558Y-88945088D01*
X130217336Y-88742513D01*
X129952985Y-88632745D01*
X129666750Y-88632495D01*
X129402208Y-88741802D01*
X129199633Y-88944024D01*
X129089865Y-89208375D01*
X129089615Y-89494610D01*
X117555360Y-89494610D01*
X117555360Y-77083226D01*
X117584888Y-77127418D01*
X117954277Y-77374235D01*
X118390000Y-77460906D01*
X118825723Y-77374235D01*
X119195112Y-77127418D01*
X119441929Y-76758029D01*
X119528600Y-76322306D01*
X119528600Y-76277694D01*
X119791400Y-76277694D01*
X119791400Y-76322306D01*
X119878071Y-76758029D01*
X120124888Y-77127418D01*
X120494277Y-77374235D01*
X120930000Y-77460906D01*
X121365723Y-77374235D01*
X121735112Y-77127418D01*
X121981929Y-76758029D01*
X122068600Y-76322306D01*
X122068600Y-76277694D01*
X121981929Y-75841971D01*
X121735112Y-75472582D01*
X121365723Y-75225765D01*
X120930000Y-75139094D01*
X120494277Y-75225765D01*
X120124888Y-75472582D01*
X119878071Y-75841971D01*
X119791400Y-76277694D01*
X119528600Y-76277694D01*
X119441929Y-75841971D01*
X119195112Y-75472582D01*
X118825723Y-75225765D01*
X118390000Y-75139094D01*
X117954277Y-75225765D01*
X117584888Y-75472582D01*
X117555360Y-75516774D01*
X117555360Y-75438000D01*
X117526815Y-75294494D01*
X117445525Y-75172835D01*
X117323866Y-75091545D01*
X117203042Y-75067512D01*
X116682283Y-74546753D01*
X116901929Y-74218029D01*
X116988600Y-73782306D01*
X116988600Y-73737694D01*
X119791400Y-73737694D01*
X119791400Y-73782306D01*
X119878071Y-74218029D01*
X120124888Y-74587418D01*
X120494277Y-74834235D01*
X120930000Y-74920906D01*
X121365723Y-74834235D01*
X121735112Y-74587418D01*
X121981929Y-74218029D01*
X122068600Y-73782306D01*
X122068600Y-73737694D01*
X122331400Y-73737694D01*
X122331400Y-73782306D01*
X122418071Y-74218029D01*
X122664888Y-74587418D01*
X123034277Y-74834235D01*
X123470000Y-74920906D01*
X123905723Y-74834235D01*
X123954028Y-74801958D01*
X124308520Y-75156450D01*
X124308520Y-79734586D01*
X124290871Y-79760999D01*
X124258521Y-79923640D01*
X124290871Y-80086281D01*
X124383000Y-80224160D01*
X135745000Y-91586161D01*
X135745000Y-93133571D01*
X135583354Y-93200362D01*
X135291387Y-93491820D01*
X135133180Y-93872823D01*
X135132820Y-94285367D01*
X135290362Y-94666646D01*
X135581820Y-94958613D01*
X135962823Y-95116820D01*
X136375367Y-95117180D01*
X136756646Y-94959638D01*
X137048613Y-94668180D01*
X137206820Y-94287177D01*
X137207180Y-93874633D01*
X137049638Y-93493354D01*
X136758180Y-93201387D01*
X136595000Y-93133628D01*
X136595000Y-91410120D01*
X136562649Y-91247480D01*
X136562649Y-91247479D01*
X136470521Y-91109600D01*
X125058520Y-79697600D01*
X125058520Y-76908362D01*
X125204888Y-77127418D01*
X125574277Y-77374235D01*
X126010000Y-77460906D01*
X126445723Y-77374235D01*
X126815112Y-77127418D01*
X127061929Y-76758029D01*
X127148600Y-76322306D01*
X127148600Y-76277694D01*
X127411400Y-76277694D01*
X127411400Y-76322306D01*
X127498071Y-76758029D01*
X127744888Y-77127418D01*
X128114277Y-77374235D01*
X128550000Y-77460906D01*
X128985723Y-77374235D01*
X129355112Y-77127418D01*
X129601929Y-76758029D01*
X129688600Y-76322306D01*
X129688600Y-76277694D01*
X129951400Y-76277694D01*
X129951400Y-76322306D01*
X130038071Y-76758029D01*
X130284888Y-77127418D01*
X130654277Y-77374235D01*
X131090000Y-77460906D01*
X131525723Y-77374235D01*
X131895112Y-77127418D01*
X132141929Y-76758029D01*
X132228600Y-76322306D01*
X132228600Y-76277694D01*
X132491400Y-76277694D01*
X132491400Y-76322306D01*
X132578071Y-76758029D01*
X132824888Y-77127418D01*
X133194277Y-77374235D01*
X133630000Y-77460906D01*
X134065723Y-77374235D01*
X134435112Y-77127418D01*
X134681929Y-76758029D01*
X134768600Y-76322306D01*
X134768600Y-76277694D01*
X135031400Y-76277694D01*
X135031400Y-76322306D01*
X135118071Y-76758029D01*
X135364888Y-77127418D01*
X135734277Y-77374235D01*
X136170000Y-77460906D01*
X136605723Y-77374235D01*
X136975112Y-77127418D01*
X137221929Y-76758029D01*
X137308600Y-76322306D01*
X137308600Y-76277694D01*
X137571400Y-76277694D01*
X137571400Y-76322306D01*
X137658071Y-76758029D01*
X137904888Y-77127418D01*
X138274277Y-77374235D01*
X138710000Y-77460906D01*
X139145723Y-77374235D01*
X139515112Y-77127418D01*
X139761929Y-76758029D01*
X139848600Y-76322306D01*
X139848600Y-76277694D01*
X140111400Y-76277694D01*
X140111400Y-76322306D01*
X140198071Y-76758029D01*
X140444888Y-77127418D01*
X140814277Y-77374235D01*
X141250000Y-77460906D01*
X141685723Y-77374235D01*
X142055112Y-77127418D01*
X142301929Y-76758029D01*
X142388600Y-76322306D01*
X142388600Y-76277694D01*
X145191400Y-76277694D01*
X145191400Y-76322306D01*
X145278071Y-76758029D01*
X145524888Y-77127418D01*
X145894277Y-77374235D01*
X146330000Y-77460906D01*
X146765723Y-77374235D01*
X147135112Y-77127418D01*
X147381929Y-76758029D01*
X147468600Y-76322306D01*
X147468600Y-76277694D01*
X147731400Y-76277694D01*
X147731400Y-76322306D01*
X147818071Y-76758029D01*
X148064888Y-77127418D01*
X148434277Y-77374235D01*
X148870000Y-77460906D01*
X149305723Y-77374235D01*
X149675112Y-77127418D01*
X149921929Y-76758029D01*
X150008600Y-76322306D01*
X150008600Y-76277694D01*
X150271400Y-76277694D01*
X150271400Y-76322306D01*
X150358071Y-76758029D01*
X150604888Y-77127418D01*
X150974277Y-77374235D01*
X151410000Y-77460906D01*
X151845723Y-77374235D01*
X152215112Y-77127418D01*
X152461929Y-76758029D01*
X152548600Y-76322306D01*
X152548600Y-76277694D01*
X152811400Y-76277694D01*
X152811400Y-76322306D01*
X152898071Y-76758029D01*
X153144888Y-77127418D01*
X153514277Y-77374235D01*
X153950000Y-77460906D01*
X154385723Y-77374235D01*
X154755112Y-77127418D01*
X155001929Y-76758029D01*
X155088600Y-76322306D01*
X155088600Y-76277694D01*
X155351400Y-76277694D01*
X155351400Y-76322306D01*
X155438071Y-76758029D01*
X155684888Y-77127418D01*
X156054277Y-77374235D01*
X156490000Y-77460906D01*
X156925723Y-77374235D01*
X157295112Y-77127418D01*
X157541929Y-76758029D01*
X157628600Y-76322306D01*
X157628600Y-76277694D01*
X157891400Y-76277694D01*
X157891400Y-76322306D01*
X157978071Y-76758029D01*
X158224888Y-77127418D01*
X158594277Y-77374235D01*
X159030000Y-77460906D01*
X159465723Y-77374235D01*
X159835112Y-77127418D01*
X160081929Y-76758029D01*
X160168600Y-76322306D01*
X160168600Y-76277694D01*
X160081929Y-75841971D01*
X159835112Y-75472582D01*
X159465723Y-75225765D01*
X159030000Y-75139094D01*
X158594277Y-75225765D01*
X158224888Y-75472582D01*
X157978071Y-75841971D01*
X157891400Y-76277694D01*
X157628600Y-76277694D01*
X157541929Y-75841971D01*
X157295112Y-75472582D01*
X156925723Y-75225765D01*
X156490000Y-75139094D01*
X156054277Y-75225765D01*
X155684888Y-75472582D01*
X155438071Y-75841971D01*
X155351400Y-76277694D01*
X155088600Y-76277694D01*
X155001929Y-75841971D01*
X154755112Y-75472582D01*
X154385723Y-75225765D01*
X153950000Y-75139094D01*
X153514277Y-75225765D01*
X153144888Y-75472582D01*
X152898071Y-75841971D01*
X152811400Y-76277694D01*
X152548600Y-76277694D01*
X152461929Y-75841971D01*
X152215112Y-75472582D01*
X151845723Y-75225765D01*
X151410000Y-75139094D01*
X150974277Y-75225765D01*
X150604888Y-75472582D01*
X150358071Y-75841971D01*
X150271400Y-76277694D01*
X150008600Y-76277694D01*
X149921929Y-75841971D01*
X149675112Y-75472582D01*
X149305723Y-75225765D01*
X148870000Y-75139094D01*
X148434277Y-75225765D01*
X148064888Y-75472582D01*
X147818071Y-75841971D01*
X147731400Y-76277694D01*
X147468600Y-76277694D01*
X147381929Y-75841971D01*
X147135112Y-75472582D01*
X146765723Y-75225765D01*
X146330000Y-75139094D01*
X145894277Y-75225765D01*
X145524888Y-75472582D01*
X145278071Y-75841971D01*
X145191400Y-76277694D01*
X142388600Y-76277694D01*
X142301929Y-75841971D01*
X142055112Y-75472582D01*
X141685723Y-75225765D01*
X141250000Y-75139094D01*
X140814277Y-75225765D01*
X140444888Y-75472582D01*
X140198071Y-75841971D01*
X140111400Y-76277694D01*
X139848600Y-76277694D01*
X139761929Y-75841971D01*
X139515112Y-75472582D01*
X139145723Y-75225765D01*
X138710000Y-75139094D01*
X138274277Y-75225765D01*
X137904888Y-75472582D01*
X137658071Y-75841971D01*
X137571400Y-76277694D01*
X137308600Y-76277694D01*
X137221929Y-75841971D01*
X136975112Y-75472582D01*
X136605723Y-75225765D01*
X136170000Y-75139094D01*
X135734277Y-75225765D01*
X135364888Y-75472582D01*
X135118071Y-75841971D01*
X135031400Y-76277694D01*
X134768600Y-76277694D01*
X134681929Y-75841971D01*
X134435112Y-75472582D01*
X134065723Y-75225765D01*
X133630000Y-75139094D01*
X133194277Y-75225765D01*
X132824888Y-75472582D01*
X132578071Y-75841971D01*
X132491400Y-76277694D01*
X132228600Y-76277694D01*
X132141929Y-75841971D01*
X131895112Y-75472582D01*
X131525723Y-75225765D01*
X131090000Y-75139094D01*
X130654277Y-75225765D01*
X130284888Y-75472582D01*
X130038071Y-75841971D01*
X129951400Y-76277694D01*
X129688600Y-76277694D01*
X129601929Y-75841971D01*
X129355112Y-75472582D01*
X128985723Y-75225765D01*
X128550000Y-75139094D01*
X128114277Y-75225765D01*
X127744888Y-75472582D01*
X127498071Y-75841971D01*
X127411400Y-76277694D01*
X127148600Y-76277694D01*
X127061929Y-75841971D01*
X126815112Y-75472582D01*
X126445723Y-75225765D01*
X126010000Y-75139094D01*
X125574277Y-75225765D01*
X125204888Y-75472582D01*
X125058520Y-75691638D01*
X125058520Y-75001120D01*
X125029975Y-74857614D01*
X124948685Y-74735955D01*
X124485411Y-74272681D01*
X124521929Y-74218029D01*
X124608600Y-73782306D01*
X124608600Y-73737694D01*
X124871400Y-73737694D01*
X124871400Y-73782306D01*
X124958071Y-74218029D01*
X125204888Y-74587418D01*
X125574277Y-74834235D01*
X126010000Y-74920906D01*
X126445723Y-74834235D01*
X126815112Y-74587418D01*
X127061929Y-74218029D01*
X127148600Y-73782306D01*
X127148600Y-73737694D01*
X129951400Y-73737694D01*
X129951400Y-73782306D01*
X130038071Y-74218029D01*
X130284888Y-74587418D01*
X130654277Y-74834235D01*
X131090000Y-74920906D01*
X131525723Y-74834235D01*
X131895112Y-74587418D01*
X132141929Y-74218029D01*
X132228600Y-73782306D01*
X132228600Y-73737694D01*
X132491400Y-73737694D01*
X132491400Y-73782306D01*
X132578071Y-74218029D01*
X132824888Y-74587418D01*
X133194277Y-74834235D01*
X133630000Y-74920906D01*
X134065723Y-74834235D01*
X134435112Y-74587418D01*
X134681929Y-74218029D01*
X134768600Y-73782306D01*
X134768600Y-73737694D01*
X137571400Y-73737694D01*
X137571400Y-73782306D01*
X137658071Y-74218029D01*
X137904888Y-74587418D01*
X138274277Y-74834235D01*
X138710000Y-74920906D01*
X139145723Y-74834235D01*
X139515112Y-74587418D01*
X139761929Y-74218029D01*
X139848600Y-73782306D01*
X139848600Y-73737694D01*
X140111400Y-73737694D01*
X140111400Y-73782306D01*
X140198071Y-74218029D01*
X140444888Y-74587418D01*
X140814277Y-74834235D01*
X141250000Y-74920906D01*
X141685723Y-74834235D01*
X142055112Y-74587418D01*
X142301929Y-74218029D01*
X142388600Y-73782306D01*
X142388600Y-73737694D01*
X142651400Y-73737694D01*
X142651400Y-73782306D01*
X142738071Y-74218029D01*
X142984888Y-74587418D01*
X143354277Y-74834235D01*
X143790000Y-74920906D01*
X144225723Y-74834235D01*
X144595112Y-74587418D01*
X144841929Y-74218029D01*
X144928600Y-73782306D01*
X144928600Y-73737694D01*
X145191400Y-73737694D01*
X145191400Y-73782306D01*
X145278071Y-74218029D01*
X145524888Y-74587418D01*
X145894277Y-74834235D01*
X146330000Y-74920906D01*
X146765723Y-74834235D01*
X147135112Y-74587418D01*
X147381929Y-74218029D01*
X147468600Y-73782306D01*
X147468600Y-73737694D01*
X150271400Y-73737694D01*
X150271400Y-73782306D01*
X150358071Y-74218029D01*
X150604888Y-74587418D01*
X150974277Y-74834235D01*
X151410000Y-74920906D01*
X151845723Y-74834235D01*
X152215112Y-74587418D01*
X152461929Y-74218029D01*
X152548600Y-73782306D01*
X152548600Y-73737694D01*
X155351400Y-73737694D01*
X155351400Y-73782306D01*
X155438071Y-74218029D01*
X155684888Y-74587418D01*
X156054277Y-74834235D01*
X156490000Y-74920906D01*
X156925723Y-74834235D01*
X157295112Y-74587418D01*
X157541929Y-74218029D01*
X157628600Y-73782306D01*
X157628600Y-73737694D01*
X157891400Y-73737694D01*
X157891400Y-73782306D01*
X157978071Y-74218029D01*
X158224888Y-74587418D01*
X158594277Y-74834235D01*
X159030000Y-74920906D01*
X159465723Y-74834235D01*
X159835112Y-74587418D01*
X160081929Y-74218029D01*
X160168600Y-73782306D01*
X160168600Y-73737694D01*
X160431400Y-73737694D01*
X160431400Y-73782306D01*
X160518071Y-74218029D01*
X160764888Y-74587418D01*
X161134277Y-74834235D01*
X161570000Y-74920906D01*
X162005723Y-74834235D01*
X162375112Y-74587418D01*
X162621929Y-74218029D01*
X162708600Y-73782306D01*
X162708600Y-73737694D01*
X162621929Y-73301971D01*
X162375112Y-72932582D01*
X162005723Y-72685765D01*
X161570000Y-72599094D01*
X161134277Y-72685765D01*
X160764888Y-72932582D01*
X160518071Y-73301971D01*
X160431400Y-73737694D01*
X160168600Y-73737694D01*
X160081929Y-73301971D01*
X159835112Y-72932582D01*
X159465723Y-72685765D01*
X159030000Y-72599094D01*
X158594277Y-72685765D01*
X158224888Y-72932582D01*
X157978071Y-73301971D01*
X157891400Y-73737694D01*
X157628600Y-73737694D01*
X157541929Y-73301971D01*
X157295112Y-72932582D01*
X156925723Y-72685765D01*
X156490000Y-72599094D01*
X156054277Y-72685765D01*
X155684888Y-72932582D01*
X155438071Y-73301971D01*
X155351400Y-73737694D01*
X152548600Y-73737694D01*
X152461929Y-73301971D01*
X152215112Y-72932582D01*
X151845723Y-72685765D01*
X151410000Y-72599094D01*
X150974277Y-72685765D01*
X150604888Y-72932582D01*
X150358071Y-73301971D01*
X150271400Y-73737694D01*
X147468600Y-73737694D01*
X147381929Y-73301971D01*
X147135112Y-72932582D01*
X146765723Y-72685765D01*
X146330000Y-72599094D01*
X145894277Y-72685765D01*
X145524888Y-72932582D01*
X145278071Y-73301971D01*
X145191400Y-73737694D01*
X144928600Y-73737694D01*
X144841929Y-73301971D01*
X144595112Y-72932582D01*
X144225723Y-72685765D01*
X143790000Y-72599094D01*
X143354277Y-72685765D01*
X142984888Y-72932582D01*
X142738071Y-73301971D01*
X142651400Y-73737694D01*
X142388600Y-73737694D01*
X142301929Y-73301971D01*
X142055112Y-72932582D01*
X141685723Y-72685765D01*
X141250000Y-72599094D01*
X140814277Y-72685765D01*
X140444888Y-72932582D01*
X140198071Y-73301971D01*
X140111400Y-73737694D01*
X139848600Y-73737694D01*
X139761929Y-73301971D01*
X139515112Y-72932582D01*
X139145723Y-72685765D01*
X138710000Y-72599094D01*
X138274277Y-72685765D01*
X137904888Y-72932582D01*
X137658071Y-73301971D01*
X137571400Y-73737694D01*
X134768600Y-73737694D01*
X134681929Y-73301971D01*
X134435112Y-72932582D01*
X134065723Y-72685765D01*
X133630000Y-72599094D01*
X133194277Y-72685765D01*
X132824888Y-72932582D01*
X132578071Y-73301971D01*
X132491400Y-73737694D01*
X132228600Y-73737694D01*
X132141929Y-73301971D01*
X131895112Y-72932582D01*
X131525723Y-72685765D01*
X131090000Y-72599094D01*
X130654277Y-72685765D01*
X130284888Y-72932582D01*
X130038071Y-73301971D01*
X129951400Y-73737694D01*
X127148600Y-73737694D01*
X127061929Y-73301971D01*
X126815112Y-72932582D01*
X126445723Y-72685765D01*
X126010000Y-72599094D01*
X125574277Y-72685765D01*
X125204888Y-72932582D01*
X124958071Y-73301971D01*
X124871400Y-73737694D01*
X124608600Y-73737694D01*
X124521929Y-73301971D01*
X124275112Y-72932582D01*
X123905723Y-72685765D01*
X123470000Y-72599094D01*
X123034277Y-72685765D01*
X122664888Y-72932582D01*
X122418071Y-73301971D01*
X122331400Y-73737694D01*
X122068600Y-73737694D01*
X121981929Y-73301971D01*
X121735112Y-72932582D01*
X121365723Y-72685765D01*
X120930000Y-72599094D01*
X120494277Y-72685765D01*
X120124888Y-72932582D01*
X119878071Y-73301971D01*
X119791400Y-73737694D01*
X116988600Y-73737694D01*
X116901929Y-73301971D01*
X116655112Y-72932582D01*
X116285723Y-72685765D01*
X115850000Y-72599094D01*
X115414277Y-72685765D01*
X115044888Y-72932582D01*
X114842819Y-73235000D01*
X114317181Y-73235000D01*
X114115112Y-72932582D01*
X113745723Y-72685765D01*
X113310000Y-72599094D01*
X112874277Y-72685765D01*
X112504888Y-72932582D01*
X112258071Y-73301971D01*
X112195000Y-73619049D01*
X112195000Y-72622464D01*
X112269670Y-72247071D01*
X112480917Y-71930917D01*
X112797071Y-71719670D01*
X113172464Y-71645000D01*
X162167536Y-71645000D01*
X162542929Y-71719670D01*
M02*
