G04 #@! TF.FileFunction,Profile,NP*
%FSLAX46Y46*%
G04 Gerber Fmt 4.6, Leading zero omitted, Abs format (unit mm)*
G04 Created by KiCad (PCBNEW 4.0.4-stable) date Thursday 06 October 2016 23:28:34*
%MOMM*%
%LPD*%
G01*
G04 APERTURE LIST*
%ADD10C,0.100000*%
G04 APERTURE END LIST*
D10*
X150920000Y-108570000D02*
G75*
G03X149920000Y-107570000I-1000000J0D01*
G01*
X149920000Y-107570000D02*
G75*
G03X148920000Y-108570000I0J-1000000D01*
G01*
X104920000Y-109070000D02*
X104920000Y-124570000D01*
X104920000Y-90070000D02*
X104920000Y-74070000D01*
X108920000Y-108070000D02*
X105920000Y-108070000D01*
X109920000Y-92070000D02*
X109920000Y-107070000D01*
X105920000Y-91070000D02*
X108920000Y-91070000D01*
X108920000Y-108070000D02*
G75*
G03X109920000Y-107070000I0J1000000D01*
G01*
X109920000Y-92070000D02*
G75*
G03X108920000Y-91070000I-1000000J0D01*
G01*
X105920000Y-108070000D02*
G75*
G03X104920000Y-109070000I0J-1000000D01*
G01*
X104920000Y-90070000D02*
G75*
G03X105920000Y-91070000I1000000J0D01*
G01*
X148920000Y-123570000D02*
X148920000Y-108570000D01*
X150920000Y-108570000D02*
X150920000Y-123570000D01*
X149920000Y-124570000D02*
G75*
G03X150920000Y-123570000I0J1000000D01*
G01*
X148920000Y-123570000D02*
G75*
G03X149920000Y-124570000I1000000J0D01*
G01*
X166920000Y-127570000D02*
X107920000Y-127570000D01*
X169920000Y-74070000D02*
X169920000Y-124570000D01*
X107920000Y-71070000D02*
X166920000Y-71070000D01*
X166920000Y-127570000D02*
G75*
G03X169920000Y-124570000I0J3000000D01*
G01*
X107920000Y-71070000D02*
G75*
G03X104920000Y-74070000I0J-3000000D01*
G01*
X169920000Y-74070000D02*
G75*
G03X166920000Y-71070000I-3000000J0D01*
G01*
X104920000Y-124570000D02*
G75*
G03X107920000Y-127570000I3000000J0D01*
G01*
M02*
