G04 #@! TF.FileFunction,Legend,Top*
%FSLAX46Y46*%
G04 Gerber Fmt 4.6, Leading zero omitted, Abs format (unit mm)*
G04 Created by KiCad (PCBNEW 4.0.4-stable) date Thursday 06 October 2016 23:28:34*
%MOMM*%
%LPD*%
G01*
G04 APERTURE LIST*
%ADD10C,0.100000*%
%ADD11C,0.300000*%
%ADD12C,0.150000*%
G04 APERTURE END LIST*
D10*
D11*
X168775771Y-111418661D02*
X167275771Y-111418661D01*
X168775771Y-110561518D01*
X167275771Y-110561518D01*
X168632914Y-109847232D02*
X168704343Y-109775804D01*
X168775771Y-109847232D01*
X168704343Y-109918661D01*
X168632914Y-109847232D01*
X168775771Y-109847232D01*
X168347200Y-109204375D02*
X168347200Y-108490089D01*
X168775771Y-109347232D02*
X167275771Y-108847232D01*
X168775771Y-108347232D01*
X167775771Y-107204375D02*
X168990057Y-107204375D01*
X169132914Y-107275804D01*
X169204343Y-107347232D01*
X169275771Y-107490089D01*
X169275771Y-107704375D01*
X169204343Y-107847232D01*
X168704343Y-107204375D02*
X168775771Y-107347232D01*
X168775771Y-107632946D01*
X168704343Y-107775804D01*
X168632914Y-107847232D01*
X168490057Y-107918661D01*
X168061486Y-107918661D01*
X167918629Y-107847232D01*
X167847200Y-107775804D01*
X167775771Y-107632946D01*
X167775771Y-107347232D01*
X167847200Y-107204375D01*
X167775771Y-105847232D02*
X168775771Y-105847232D01*
X167775771Y-106490089D02*
X168561486Y-106490089D01*
X168704343Y-106418661D01*
X168775771Y-106275803D01*
X168775771Y-106061518D01*
X168704343Y-105918661D01*
X168632914Y-105847232D01*
X168775771Y-105132946D02*
X167775771Y-105132946D01*
X167275771Y-105132946D02*
X167347200Y-105204375D01*
X167418629Y-105132946D01*
X167347200Y-105061518D01*
X167275771Y-105132946D01*
X167418629Y-105132946D01*
X168775771Y-104418660D02*
X167775771Y-104418660D01*
X168061486Y-104418660D02*
X167918629Y-104347232D01*
X167847200Y-104275803D01*
X167775771Y-104132946D01*
X167775771Y-103990089D01*
X168775771Y-103490089D02*
X167775771Y-103490089D01*
X168061486Y-103490089D02*
X167918629Y-103418661D01*
X167847200Y-103347232D01*
X167775771Y-103204375D01*
X167775771Y-103061518D01*
X168704343Y-101990090D02*
X168775771Y-102132947D01*
X168775771Y-102418661D01*
X168704343Y-102561518D01*
X168561486Y-102632947D01*
X167990057Y-102632947D01*
X167847200Y-102561518D01*
X167775771Y-102418661D01*
X167775771Y-102132947D01*
X167847200Y-101990090D01*
X167990057Y-101918661D01*
X168132914Y-101918661D01*
X168275771Y-102632947D01*
X168775771Y-99347233D02*
X168775771Y-100204376D01*
X168775771Y-99775804D02*
X167275771Y-99775804D01*
X167490057Y-99918661D01*
X167632914Y-100061519D01*
X167704343Y-100204376D01*
X167275771Y-98418662D02*
X167275771Y-98275805D01*
X167347200Y-98132948D01*
X167418629Y-98061519D01*
X167561486Y-97990090D01*
X167847200Y-97918662D01*
X168204343Y-97918662D01*
X168490057Y-97990090D01*
X168632914Y-98061519D01*
X168704343Y-98132948D01*
X168775771Y-98275805D01*
X168775771Y-98418662D01*
X168704343Y-98561519D01*
X168632914Y-98632948D01*
X168490057Y-98704376D01*
X168204343Y-98775805D01*
X167847200Y-98775805D01*
X167561486Y-98704376D01*
X167418629Y-98632948D01*
X167347200Y-98561519D01*
X167275771Y-98418662D01*
X167204343Y-96204377D02*
X169132914Y-97490091D01*
X167418629Y-95775805D02*
X167347200Y-95704376D01*
X167275771Y-95561519D01*
X167275771Y-95204376D01*
X167347200Y-95061519D01*
X167418629Y-94990090D01*
X167561486Y-94918662D01*
X167704343Y-94918662D01*
X167918629Y-94990090D01*
X168775771Y-95847233D01*
X168775771Y-94918662D01*
X167275771Y-93990091D02*
X167275771Y-93847234D01*
X167347200Y-93704377D01*
X167418629Y-93632948D01*
X167561486Y-93561519D01*
X167847200Y-93490091D01*
X168204343Y-93490091D01*
X168490057Y-93561519D01*
X168632914Y-93632948D01*
X168704343Y-93704377D01*
X168775771Y-93847234D01*
X168775771Y-93990091D01*
X168704343Y-94132948D01*
X168632914Y-94204377D01*
X168490057Y-94275805D01*
X168204343Y-94347234D01*
X167847200Y-94347234D01*
X167561486Y-94275805D01*
X167418629Y-94204377D01*
X167347200Y-94132948D01*
X167275771Y-93990091D01*
X168775771Y-92061520D02*
X168775771Y-92918663D01*
X168775771Y-92490091D02*
X167275771Y-92490091D01*
X167490057Y-92632948D01*
X167632914Y-92775806D01*
X167704343Y-92918663D01*
X167275771Y-90775806D02*
X167275771Y-91061520D01*
X167347200Y-91204377D01*
X167418629Y-91275806D01*
X167632914Y-91418663D01*
X167918629Y-91490092D01*
X168490057Y-91490092D01*
X168632914Y-91418663D01*
X168704343Y-91347235D01*
X168775771Y-91204377D01*
X168775771Y-90918663D01*
X168704343Y-90775806D01*
X168632914Y-90704377D01*
X168490057Y-90632949D01*
X168132914Y-90632949D01*
X167990057Y-90704377D01*
X167918629Y-90775806D01*
X167847200Y-90918663D01*
X167847200Y-91204377D01*
X167918629Y-91347235D01*
X167990057Y-91418663D01*
X168132914Y-91490092D01*
X165986234Y-113382948D02*
X166057663Y-113454377D01*
X166129091Y-113668663D01*
X166129091Y-113811520D01*
X166057663Y-114025805D01*
X165914806Y-114168663D01*
X165771949Y-114240091D01*
X165486234Y-114311520D01*
X165271949Y-114311520D01*
X164986234Y-114240091D01*
X164843377Y-114168663D01*
X164700520Y-114025805D01*
X164629091Y-113811520D01*
X164629091Y-113668663D01*
X164700520Y-113454377D01*
X164771949Y-113382948D01*
X166129091Y-112097234D02*
X165343377Y-112097234D01*
X165200520Y-112168663D01*
X165129091Y-112311520D01*
X165129091Y-112597234D01*
X165200520Y-112740091D01*
X166057663Y-112097234D02*
X166129091Y-112240091D01*
X166129091Y-112597234D01*
X166057663Y-112740091D01*
X165914806Y-112811520D01*
X165771949Y-112811520D01*
X165629091Y-112740091D01*
X165557663Y-112597234D01*
X165557663Y-112240091D01*
X165486234Y-112097234D01*
X166129091Y-111168662D02*
X166057663Y-111311520D01*
X165914806Y-111382948D01*
X164629091Y-111382948D01*
X166129091Y-109954377D02*
X165343377Y-109954377D01*
X165200520Y-110025806D01*
X165129091Y-110168663D01*
X165129091Y-110454377D01*
X165200520Y-110597234D01*
X166057663Y-109954377D02*
X166129091Y-110097234D01*
X166129091Y-110454377D01*
X166057663Y-110597234D01*
X165914806Y-110668663D01*
X165771949Y-110668663D01*
X165629091Y-110597234D01*
X165557663Y-110454377D01*
X165557663Y-110097234D01*
X165486234Y-109954377D01*
X166129091Y-109025805D02*
X166057663Y-109168663D01*
X165986234Y-109240091D01*
X165843377Y-109311520D01*
X165414806Y-109311520D01*
X165271949Y-109240091D01*
X165200520Y-109168663D01*
X165129091Y-109025805D01*
X165129091Y-108811520D01*
X165200520Y-108668663D01*
X165271949Y-108597234D01*
X165414806Y-108525805D01*
X165843377Y-108525805D01*
X165986234Y-108597234D01*
X166057663Y-108668663D01*
X166129091Y-108811520D01*
X166129091Y-109025805D01*
X166057663Y-107954377D02*
X166129091Y-107811520D01*
X166129091Y-107525805D01*
X166057663Y-107382948D01*
X165914806Y-107311520D01*
X165843377Y-107311520D01*
X165700520Y-107382948D01*
X165629091Y-107525805D01*
X165629091Y-107740091D01*
X165557663Y-107882948D01*
X165414806Y-107954377D01*
X165343377Y-107954377D01*
X165200520Y-107882948D01*
X165129091Y-107740091D01*
X165129091Y-107525805D01*
X165200520Y-107382948D01*
X164629091Y-105740091D02*
X164629091Y-104882948D01*
X166129091Y-105311519D02*
X164629091Y-105311519D01*
X166129091Y-104382948D02*
X164629091Y-104382948D01*
X166129091Y-103740091D02*
X165343377Y-103740091D01*
X165200520Y-103811520D01*
X165129091Y-103954377D01*
X165129091Y-104168662D01*
X165200520Y-104311520D01*
X165271949Y-104382948D01*
X166057663Y-102454377D02*
X166129091Y-102597234D01*
X166129091Y-102882948D01*
X166057663Y-103025805D01*
X165914806Y-103097234D01*
X165343377Y-103097234D01*
X165200520Y-103025805D01*
X165129091Y-102882948D01*
X165129091Y-102597234D01*
X165200520Y-102454377D01*
X165343377Y-102382948D01*
X165486234Y-102382948D01*
X165629091Y-103097234D01*
X166129091Y-101740091D02*
X165129091Y-101740091D01*
X165414806Y-101740091D02*
X165271949Y-101668663D01*
X165200520Y-101597234D01*
X165129091Y-101454377D01*
X165129091Y-101311520D01*
X166129091Y-100811520D02*
X165129091Y-100811520D01*
X165271949Y-100811520D02*
X165200520Y-100740092D01*
X165129091Y-100597234D01*
X165129091Y-100382949D01*
X165200520Y-100240092D01*
X165343377Y-100168663D01*
X166129091Y-100168663D01*
X165343377Y-100168663D02*
X165200520Y-100097234D01*
X165129091Y-99954377D01*
X165129091Y-99740092D01*
X165200520Y-99597234D01*
X165343377Y-99525806D01*
X166129091Y-99525806D01*
X166129091Y-98597234D02*
X166057663Y-98740092D01*
X165986234Y-98811520D01*
X165843377Y-98882949D01*
X165414806Y-98882949D01*
X165271949Y-98811520D01*
X165200520Y-98740092D01*
X165129091Y-98597234D01*
X165129091Y-98382949D01*
X165200520Y-98240092D01*
X165271949Y-98168663D01*
X165414806Y-98097234D01*
X165843377Y-98097234D01*
X165986234Y-98168663D01*
X166057663Y-98240092D01*
X166129091Y-98382949D01*
X166129091Y-98597234D01*
X166057663Y-97525806D02*
X166129091Y-97382949D01*
X166129091Y-97097234D01*
X166057663Y-96954377D01*
X165914806Y-96882949D01*
X165843377Y-96882949D01*
X165700520Y-96954377D01*
X165629091Y-97097234D01*
X165629091Y-97311520D01*
X165557663Y-97454377D01*
X165414806Y-97525806D01*
X165343377Y-97525806D01*
X165200520Y-97454377D01*
X165129091Y-97311520D01*
X165129091Y-97097234D01*
X165200520Y-96954377D01*
X165129091Y-96454377D02*
X165129091Y-95882948D01*
X164629091Y-96240091D02*
X165914806Y-96240091D01*
X166057663Y-96168663D01*
X166129091Y-96025805D01*
X166129091Y-95882948D01*
X166129091Y-94740091D02*
X165343377Y-94740091D01*
X165200520Y-94811520D01*
X165129091Y-94954377D01*
X165129091Y-95240091D01*
X165200520Y-95382948D01*
X166057663Y-94740091D02*
X166129091Y-94882948D01*
X166129091Y-95240091D01*
X166057663Y-95382948D01*
X165914806Y-95454377D01*
X165771949Y-95454377D01*
X165629091Y-95382948D01*
X165557663Y-95240091D01*
X165557663Y-94882948D01*
X165486234Y-94740091D01*
X165129091Y-94240091D02*
X165129091Y-93668662D01*
X164629091Y-94025805D02*
X165914806Y-94025805D01*
X166057663Y-93954377D01*
X166129091Y-93811519D01*
X166129091Y-93668662D01*
X164629091Y-92240091D02*
X166129091Y-91740091D01*
X164629091Y-91240091D01*
X166129091Y-89954377D02*
X166129091Y-90811520D01*
X166129091Y-90382948D02*
X164629091Y-90382948D01*
X164843377Y-90525805D01*
X164986234Y-90668663D01*
X165057663Y-90811520D01*
X165986234Y-89311520D02*
X166057663Y-89240092D01*
X166129091Y-89311520D01*
X166057663Y-89382949D01*
X165986234Y-89311520D01*
X166129091Y-89311520D01*
X164629091Y-88311520D02*
X164629091Y-88168663D01*
X164700520Y-88025806D01*
X164771949Y-87954377D01*
X164914806Y-87882948D01*
X165200520Y-87811520D01*
X165557663Y-87811520D01*
X165843377Y-87882948D01*
X165986234Y-87954377D01*
X166057663Y-88025806D01*
X166129091Y-88168663D01*
X166129091Y-88311520D01*
X166057663Y-88454377D01*
X165986234Y-88525806D01*
X165843377Y-88597234D01*
X165557663Y-88668663D01*
X165200520Y-88668663D01*
X164914806Y-88597234D01*
X164771949Y-88525806D01*
X164700520Y-88454377D01*
X164629091Y-88311520D01*
D12*
X111960000Y-112890000D02*
X111960000Y-116190000D01*
X111960000Y-116190000D02*
X127360000Y-116190000D01*
X127360000Y-116190000D02*
X127360000Y-112840000D01*
X118310000Y-96590000D02*
X111960000Y-96590000D01*
X111960000Y-96590000D02*
X111960000Y-111140000D01*
X121060000Y-96590000D02*
X127360000Y-96590000D01*
X127360000Y-96590000D02*
X127360000Y-111340000D01*
X127310000Y-96590000D02*
X121060000Y-96590000D01*
X115460000Y-112040000D02*
X117910000Y-112040000D01*
X123860000Y-112040000D02*
X121360000Y-112040000D01*
X113610000Y-101440000D02*
X113610000Y-103940000D01*
X119610000Y-100540000D02*
X119610000Y-99740000D01*
X125610000Y-103940000D02*
X125610000Y-101440000D01*
X119610000Y-107340000D02*
X119610000Y-108840000D01*
X119610000Y-108840000D02*
X122110000Y-113440000D01*
X116010000Y-107340000D02*
X116010000Y-100540000D01*
X119610000Y-107340000D02*
X116010000Y-107340000D01*
X119610000Y-100540000D02*
X116010000Y-100540000D01*
X125610000Y-103940000D02*
X121410000Y-103940000D01*
X117810000Y-103940000D02*
X113610000Y-103940000D01*
X117810000Y-105940000D02*
X121410000Y-101940000D01*
X117810000Y-101940000D02*
X121410000Y-101940000D01*
X121410000Y-101940000D02*
X121410000Y-105940000D01*
X121410000Y-105940000D02*
X117810000Y-105940000D01*
X117810000Y-105940000D02*
X117810000Y-101940000D01*
X132360000Y-128370000D02*
X132360000Y-120750000D01*
X147600000Y-128370000D02*
X147600000Y-120750000D01*
X132360000Y-127100000D02*
X147600000Y-127100000D01*
X132360000Y-120750000D02*
X147600000Y-120750000D01*
X132360000Y-128370000D02*
X147600000Y-128370000D01*
X136522305Y-95076990D02*
G75*
G03X137010000Y-95780000I2187695J996990D01*
G01*
X140897695Y-95076990D02*
G75*
G02X140410000Y-95780000I-2187695J996990D01*
G01*
X137010000Y-95780000D02*
X140410000Y-95780000D01*
X136525121Y-93086873D02*
G75*
G02X138710000Y-91680000I2184879J-993127D01*
G01*
X140894879Y-93086873D02*
G75*
G03X138710000Y-91680000I-2184879J-993127D01*
G01*
X162840000Y-72490000D02*
X112040000Y-72490000D01*
X114580000Y-77570000D02*
X162840000Y-77570000D01*
X162840000Y-72490000D02*
X162840000Y-77570000D01*
X112040000Y-72490000D02*
X112040000Y-75030000D01*
X111760000Y-76300000D02*
X111760000Y-77850000D01*
X112040000Y-75030000D02*
X114580000Y-75030000D01*
X114580000Y-75030000D02*
X114580000Y-77570000D01*
X111760000Y-77850000D02*
X113310000Y-77850000D01*
X132360000Y-127100000D02*
X122200000Y-127100000D01*
X132360000Y-128370000D02*
X132360000Y-120750000D01*
X132360000Y-120750000D02*
X122200000Y-120750000D01*
X122200000Y-120750000D02*
X122200000Y-128370000D01*
X122200000Y-128370000D02*
X132360000Y-128370000D01*
X122200000Y-127100000D02*
X112040000Y-127100000D01*
X122200000Y-128370000D02*
X122200000Y-120750000D01*
X122200000Y-120750000D02*
X112040000Y-120750000D01*
X112040000Y-120750000D02*
X112040000Y-128370000D01*
X112040000Y-128370000D02*
X122200000Y-128370000D01*
X124790800Y-95579820D02*
X124089760Y-95579820D01*
X124089760Y-95579820D02*
X124089760Y-95330900D01*
X124089760Y-92780840D02*
X124089760Y-92580180D01*
X124089760Y-92580180D02*
X124790800Y-92580180D01*
X141570000Y-112635000D02*
X140370000Y-112635000D01*
X140370000Y-110885000D02*
X141570000Y-110885000D01*
X132755000Y-116270000D02*
X132755000Y-115070000D01*
X134505000Y-115070000D02*
X134505000Y-116270000D01*
X145455000Y-116270000D02*
X145455000Y-115070000D01*
X147205000Y-115070000D02*
X147205000Y-116270000D01*
X131205000Y-93310000D02*
X131205000Y-92110000D01*
X132955000Y-92110000D02*
X132955000Y-93310000D01*
X142167695Y-114673010D02*
G75*
G03X141680000Y-113970000I-2187695J-996990D01*
G01*
X137792305Y-114673010D02*
G75*
G02X138280000Y-113970000I2187695J-996990D01*
G01*
X141680000Y-113970000D02*
X138280000Y-113970000D01*
X142164879Y-116663127D02*
G75*
G02X139980000Y-118070000I-2184879J993127D01*
G01*
X137795121Y-116663127D02*
G75*
G03X139980000Y-118070000I2184879J993127D01*
G01*
X130065000Y-109185000D02*
X131335000Y-109185000D01*
X130065000Y-101835000D02*
X131335000Y-101835000D01*
X137195000Y-101835000D02*
X135925000Y-101835000D01*
X137195000Y-109185000D02*
X135925000Y-109185000D01*
X130065000Y-109185000D02*
X130065000Y-101835000D01*
X137195000Y-109185000D02*
X137195000Y-101835000D01*
X131335000Y-109185000D02*
X131335000Y-110120000D01*
X118560000Y-94780000D02*
X120360000Y-94780000D01*
X118560000Y-93380000D02*
X120360000Y-93380000D01*
X112585572Y-95842081D02*
X112252238Y-95365890D01*
X112014143Y-95842081D02*
X112014143Y-94842081D01*
X112395096Y-94842081D01*
X112490334Y-94889700D01*
X112537953Y-94937319D01*
X112585572Y-95032557D01*
X112585572Y-95175414D01*
X112537953Y-95270652D01*
X112490334Y-95318271D01*
X112395096Y-95365890D01*
X112014143Y-95365890D01*
X113490334Y-95842081D02*
X113014143Y-95842081D01*
X113014143Y-94842081D01*
X114347477Y-95842081D02*
X113776048Y-95842081D01*
X114061762Y-95842081D02*
X114061762Y-94842081D01*
X113966524Y-94984938D01*
X113871286Y-95080176D01*
X113776048Y-95127795D01*
X136622858Y-119932381D02*
X136051429Y-119932381D01*
X136337143Y-119932381D02*
X136337143Y-118932381D01*
X136241905Y-119075238D01*
X136146667Y-119170476D01*
X136051429Y-119218095D01*
X136956191Y-118932381D02*
X137194286Y-119932381D01*
X137384763Y-119218095D01*
X137575239Y-119932381D01*
X137813334Y-118932381D01*
X138194286Y-119932381D02*
X138194286Y-118932381D01*
X139241905Y-119932381D02*
X138908571Y-119456190D01*
X138670476Y-119932381D02*
X138670476Y-118932381D01*
X139051429Y-118932381D01*
X139146667Y-118980000D01*
X139194286Y-119027619D01*
X139241905Y-119122857D01*
X139241905Y-119265714D01*
X139194286Y-119360952D01*
X139146667Y-119408571D01*
X139051429Y-119456190D01*
X138670476Y-119456190D01*
X139670476Y-119408571D02*
X140003810Y-119408571D01*
X140146667Y-119932381D02*
X139670476Y-119932381D01*
X139670476Y-118932381D01*
X140146667Y-118932381D01*
X140337143Y-120027619D02*
X141099048Y-120027619D01*
X141670477Y-119408571D02*
X141813334Y-119456190D01*
X141860953Y-119503810D01*
X141908572Y-119599048D01*
X141908572Y-119741905D01*
X141860953Y-119837143D01*
X141813334Y-119884762D01*
X141718096Y-119932381D01*
X141337143Y-119932381D01*
X141337143Y-118932381D01*
X141670477Y-118932381D01*
X141765715Y-118980000D01*
X141813334Y-119027619D01*
X141860953Y-119122857D01*
X141860953Y-119218095D01*
X141813334Y-119313333D01*
X141765715Y-119360952D01*
X141670477Y-119408571D01*
X141337143Y-119408571D01*
X142337143Y-118932381D02*
X142337143Y-119741905D01*
X142384762Y-119837143D01*
X142432381Y-119884762D01*
X142527619Y-119932381D01*
X142718096Y-119932381D01*
X142813334Y-119884762D01*
X142860953Y-119837143D01*
X142908572Y-119741905D01*
X142908572Y-118932381D01*
X143337143Y-119884762D02*
X143480000Y-119932381D01*
X143718096Y-119932381D01*
X143813334Y-119884762D01*
X143860953Y-119837143D01*
X143908572Y-119741905D01*
X143908572Y-119646667D01*
X143860953Y-119551429D01*
X143813334Y-119503810D01*
X143718096Y-119456190D01*
X143527619Y-119408571D01*
X143432381Y-119360952D01*
X143384762Y-119313333D01*
X143337143Y-119218095D01*
X143337143Y-119122857D01*
X143384762Y-119027619D01*
X143432381Y-118980000D01*
X143527619Y-118932381D01*
X143765715Y-118932381D01*
X143908572Y-118980000D01*
X136074762Y-90627619D02*
X135979524Y-90580000D01*
X135884286Y-90484762D01*
X135741429Y-90341905D01*
X135646190Y-90294286D01*
X135550952Y-90294286D01*
X135598571Y-90532381D02*
X135503333Y-90484762D01*
X135408095Y-90389524D01*
X135360476Y-90199048D01*
X135360476Y-89865714D01*
X135408095Y-89675238D01*
X135503333Y-89580000D01*
X135598571Y-89532381D01*
X135789048Y-89532381D01*
X135884286Y-89580000D01*
X135979524Y-89675238D01*
X136027143Y-89865714D01*
X136027143Y-90199048D01*
X135979524Y-90389524D01*
X135884286Y-90484762D01*
X135789048Y-90532381D01*
X135598571Y-90532381D01*
X136408095Y-89627619D02*
X136455714Y-89580000D01*
X136550952Y-89532381D01*
X136789048Y-89532381D01*
X136884286Y-89580000D01*
X136931905Y-89627619D01*
X136979524Y-89722857D01*
X136979524Y-89818095D01*
X136931905Y-89960952D01*
X136360476Y-90532381D01*
X136979524Y-90532381D01*
X108662381Y-77038095D02*
X107662381Y-77038095D01*
X107662381Y-76657142D01*
X107710000Y-76561904D01*
X107757619Y-76514285D01*
X107852857Y-76466666D01*
X107995714Y-76466666D01*
X108090952Y-76514285D01*
X108138571Y-76561904D01*
X108186190Y-76657142D01*
X108186190Y-77038095D01*
X108662381Y-75514285D02*
X108662381Y-76085714D01*
X108662381Y-75800000D02*
X107662381Y-75800000D01*
X107805238Y-75895238D01*
X107900476Y-75990476D01*
X107948095Y-76085714D01*
X123970476Y-118932381D02*
X124541905Y-118932381D01*
X124256190Y-119932381D02*
X124256190Y-118932381D01*
X124875238Y-119408571D02*
X125208572Y-119408571D01*
X125351429Y-119932381D02*
X124875238Y-119932381D01*
X124875238Y-118932381D01*
X125351429Y-118932381D01*
X126256191Y-119932381D02*
X125780000Y-119932381D01*
X125780000Y-118932381D01*
X126589524Y-119408571D02*
X126922858Y-119408571D01*
X127065715Y-119932381D02*
X126589524Y-119932381D01*
X126589524Y-118932381D01*
X127065715Y-118932381D01*
X127494286Y-119932381D02*
X127494286Y-118932381D01*
X127970476Y-119932381D02*
X127970476Y-118932381D01*
X128541905Y-119932381D01*
X128541905Y-118932381D01*
X129351429Y-119408571D02*
X129018095Y-119408571D01*
X129018095Y-119932381D02*
X129018095Y-118932381D01*
X129494286Y-118932381D01*
X130065714Y-118932381D02*
X130256191Y-118932381D01*
X130351429Y-118980000D01*
X130446667Y-119075238D01*
X130494286Y-119265714D01*
X130494286Y-119599048D01*
X130446667Y-119789524D01*
X130351429Y-119884762D01*
X130256191Y-119932381D01*
X130065714Y-119932381D01*
X129970476Y-119884762D01*
X129875238Y-119789524D01*
X129827619Y-119599048D01*
X129827619Y-119265714D01*
X129875238Y-119075238D01*
X129970476Y-118980000D01*
X130065714Y-118932381D01*
X114786667Y-119932381D02*
X114453333Y-119456190D01*
X114215238Y-119932381D02*
X114215238Y-118932381D01*
X114596191Y-118932381D01*
X114691429Y-118980000D01*
X114739048Y-119027619D01*
X114786667Y-119122857D01*
X114786667Y-119265714D01*
X114739048Y-119360952D01*
X114691429Y-119408571D01*
X114596191Y-119456190D01*
X114215238Y-119456190D01*
X115691429Y-119932381D02*
X115215238Y-119932381D01*
X115215238Y-118932381D01*
X116215238Y-119456190D02*
X116215238Y-119932381D01*
X115881905Y-118932381D02*
X116215238Y-119456190D01*
X116548572Y-118932381D01*
X116643810Y-120027619D02*
X117405715Y-120027619D01*
X117834286Y-118932381D02*
X118024763Y-118932381D01*
X118120001Y-118980000D01*
X118215239Y-119075238D01*
X118262858Y-119265714D01*
X118262858Y-119599048D01*
X118215239Y-119789524D01*
X118120001Y-119884762D01*
X118024763Y-119932381D01*
X117834286Y-119932381D01*
X117739048Y-119884762D01*
X117643810Y-119789524D01*
X117596191Y-119599048D01*
X117596191Y-119265714D01*
X117643810Y-119075238D01*
X117739048Y-118980000D01*
X117834286Y-118932381D01*
X118691429Y-118932381D02*
X118691429Y-119741905D01*
X118739048Y-119837143D01*
X118786667Y-119884762D01*
X118881905Y-119932381D01*
X119072382Y-119932381D01*
X119167620Y-119884762D01*
X119215239Y-119837143D01*
X119262858Y-119741905D01*
X119262858Y-118932381D01*
X119596191Y-118932381D02*
X120167620Y-118932381D01*
X119881905Y-119932381D02*
X119881905Y-118932381D01*
X124461282Y-92190819D02*
X124366044Y-92143200D01*
X124270806Y-92047962D01*
X124127949Y-91905105D01*
X124032710Y-91857486D01*
X123937472Y-91857486D01*
X123985091Y-92095581D02*
X123889853Y-92047962D01*
X123794615Y-91952724D01*
X123746996Y-91762248D01*
X123746996Y-91428914D01*
X123794615Y-91238438D01*
X123889853Y-91143200D01*
X123985091Y-91095581D01*
X124175568Y-91095581D01*
X124270806Y-91143200D01*
X124366044Y-91238438D01*
X124413663Y-91428914D01*
X124413663Y-91762248D01*
X124366044Y-91952724D01*
X124270806Y-92047962D01*
X124175568Y-92095581D01*
X123985091Y-92095581D01*
X125366044Y-92095581D02*
X124794615Y-92095581D01*
X125080329Y-92095581D02*
X125080329Y-91095581D01*
X124985091Y-91238438D01*
X124889853Y-91333676D01*
X124794615Y-91381295D01*
X140803334Y-110112381D02*
X140470000Y-109636190D01*
X140231905Y-110112381D02*
X140231905Y-109112381D01*
X140612858Y-109112381D01*
X140708096Y-109160000D01*
X140755715Y-109207619D01*
X140803334Y-109302857D01*
X140803334Y-109445714D01*
X140755715Y-109540952D01*
X140708096Y-109588571D01*
X140612858Y-109636190D01*
X140231905Y-109636190D01*
X141755715Y-110112381D02*
X141184286Y-110112381D01*
X141470000Y-110112381D02*
X141470000Y-109112381D01*
X141374762Y-109255238D01*
X141279524Y-109350476D01*
X141184286Y-109398095D01*
X133531314Y-112852461D02*
X133197980Y-112376270D01*
X132959885Y-112852461D02*
X132959885Y-111852461D01*
X133340838Y-111852461D01*
X133436076Y-111900080D01*
X133483695Y-111947699D01*
X133531314Y-112042937D01*
X133531314Y-112185794D01*
X133483695Y-112281032D01*
X133436076Y-112328651D01*
X133340838Y-112376270D01*
X132959885Y-112376270D01*
X133912266Y-111947699D02*
X133959885Y-111900080D01*
X134055123Y-111852461D01*
X134293219Y-111852461D01*
X134388457Y-111900080D01*
X134436076Y-111947699D01*
X134483695Y-112042937D01*
X134483695Y-112138175D01*
X134436076Y-112281032D01*
X133864647Y-112852461D01*
X134483695Y-112852461D01*
X146005254Y-112601001D02*
X145671920Y-112124810D01*
X145433825Y-112601001D02*
X145433825Y-111601001D01*
X145814778Y-111601001D01*
X145910016Y-111648620D01*
X145957635Y-111696239D01*
X146005254Y-111791477D01*
X146005254Y-111934334D01*
X145957635Y-112029572D01*
X145910016Y-112077191D01*
X145814778Y-112124810D01*
X145433825Y-112124810D01*
X146338587Y-111601001D02*
X146957635Y-111601001D01*
X146624301Y-111981953D01*
X146767159Y-111981953D01*
X146862397Y-112029572D01*
X146910016Y-112077191D01*
X146957635Y-112172430D01*
X146957635Y-112410525D01*
X146910016Y-112505763D01*
X146862397Y-112553382D01*
X146767159Y-112601001D01*
X146481444Y-112601001D01*
X146386206Y-112553382D01*
X146338587Y-112505763D01*
X132017474Y-90045801D02*
X131684140Y-89569610D01*
X131446045Y-90045801D02*
X131446045Y-89045801D01*
X131826998Y-89045801D01*
X131922236Y-89093420D01*
X131969855Y-89141039D01*
X132017474Y-89236277D01*
X132017474Y-89379134D01*
X131969855Y-89474372D01*
X131922236Y-89521991D01*
X131826998Y-89569610D01*
X131446045Y-89569610D01*
X132874617Y-89379134D02*
X132874617Y-90045801D01*
X132636521Y-88998182D02*
X132398426Y-89712468D01*
X133017474Y-89712468D01*
X142709995Y-113503461D02*
X142709995Y-114312985D01*
X142757614Y-114408223D01*
X142805233Y-114455842D01*
X142900471Y-114503461D01*
X143090948Y-114503461D01*
X143186186Y-114455842D01*
X143233805Y-114408223D01*
X143281424Y-114312985D01*
X143281424Y-113503461D01*
X144281424Y-114503461D02*
X143709995Y-114503461D01*
X143995709Y-114503461D02*
X143995709Y-113503461D01*
X143900471Y-113646318D01*
X143805233Y-113741556D01*
X143709995Y-113789175D01*
X135455755Y-99127061D02*
X135455755Y-99936585D01*
X135503374Y-100031823D01*
X135550993Y-100079442D01*
X135646231Y-100127061D01*
X135836708Y-100127061D01*
X135931946Y-100079442D01*
X135979565Y-100031823D01*
X136027184Y-99936585D01*
X136027184Y-99127061D01*
X136455755Y-99222299D02*
X136503374Y-99174680D01*
X136598612Y-99127061D01*
X136836708Y-99127061D01*
X136931946Y-99174680D01*
X136979565Y-99222299D01*
X137027184Y-99317537D01*
X137027184Y-99412775D01*
X136979565Y-99555632D01*
X136408136Y-100127061D01*
X137027184Y-100127061D01*
X118972105Y-92692481D02*
X118972105Y-91692481D01*
X119210200Y-91692481D01*
X119353058Y-91740100D01*
X119448296Y-91835338D01*
X119495915Y-91930576D01*
X119543534Y-92121052D01*
X119543534Y-92263910D01*
X119495915Y-92454386D01*
X119448296Y-92549624D01*
X119353058Y-92644862D01*
X119210200Y-92692481D01*
X118972105Y-92692481D01*
X120495915Y-92692481D02*
X119924486Y-92692481D01*
X120210200Y-92692481D02*
X120210200Y-91692481D01*
X120114962Y-91835338D01*
X120019724Y-91930576D01*
X119924486Y-91978195D01*
M02*
