M48
INCH,TZ
T1C0.025
T2C0.031
T3C0.039
T4C0.040
T5C0.051
T6C0.060
T7C0.118
%
G90
G05
T1
X51106Y-35178
X56035Y-43330
T2
X52110Y-40039
X52110Y-43039
X53110Y-40039
X53110Y-43039
X53610Y-37039
X54110Y-45539
X54610Y-37039
X55110Y-45539
X55610Y-37039
X56110Y-45539
T3
X44728Y-39307
X49453Y-39307
T4
X44610Y-29039
X44610Y-30039
X45610Y-29039
X45610Y-30039
X46610Y-29039
X46610Y-30039
X47610Y-29039
X47610Y-30039
X48610Y-29039
X48610Y-30039
X49610Y-29039
X49610Y-30039
X50610Y-29039
X50610Y-30039
X51610Y-29039
X51610Y-30039
X52610Y-29039
X52610Y-30039
X53610Y-29039
X53610Y-30039
X54610Y-29039
X54610Y-30039
X55610Y-29039
X55610Y-30039
X56610Y-29039
X56610Y-30039
X57610Y-29039
X57610Y-30039
X58610Y-29039
X58610Y-30039
X59610Y-29039
X59610Y-30039
X60610Y-29039
X60610Y-30039
X61610Y-29039
X61610Y-30039
X62610Y-29039
X62610Y-30039
X63610Y-29039
X63610Y-30039
T5
X44728Y-44110
X47110Y-38539
X49472Y-44130
T6
X45110Y-49039
X47110Y-49039
X49110Y-49039
X51110Y-49039
X53110Y-49039
X55110Y-49039
X57110Y-49039
T7
X42685Y-29457
X42685Y-48748
X65520Y-29457
X65520Y-48748
T0
M30
